Open Antique Tuscan-Regular.ufo
<glyph name="dollar" format="1">
  <advance width="700"/>
  <unicode hex="0024"/>
  <outline>
    <contour>
      <point x="20" y="575" type="curve"/>
      <point x="70" y="575"/>
      <point x="195" y="650"/>
      <point x="195" y="700" type="curve"/>
      <point x="365" y="700" type="line"/>
      <point x="365" y="680"/>
      <point x="400" y="640"/>
      <point x="410" y="640" type="curve"/>
      <point x="420" y="640"/>
      <point x="455" y="680"/>
      <point x="455" y="700" type="curve"/>
      <point x="580" y="700" type="line"/>
      <point x="580" y="680"/>
      <point x="570" y="670"/>
      <point x="570" y="604" type="curve"/>
      <point x="570" y="540"/>
      <point x="580" y="530"/>
      <point x="580" y="510" type="curve"/>
      <point x="560" y="510"/>
      <point x="551" y="520"/>
      <point x="495" y="520" type="curve"/>
      <point x="440" y="520"/>
      <point x="430" y="510"/>
      <point x="410" y="510" type="curve"/>
      <point x="410" y="530"/>
      <point x="390" y="570"/>
      <point x="320" y="570" type="curve"/>
      <point x="255" y="570"/>
      <point x="220" y="545"/>
      <point x="220" y="515" type="curve"/>
      <point x="220" y="485"/>
      <point x="255" y="455"/>
      <point x="345" y="455" type="curve"/>
      <point x="420" y="455"/>
      <point x="430" y="465"/>
      <point x="450" y="465" type="curve"/>
      <point x="450" y="415"/>
      <point x="570" y="355"/>
      <point x="620" y="355" type="curve"/>
      <point x="620" y="329"/>
      <point x="610" y="317"/>
      <point x="610" y="267" type="curve" smooth="yes"/>
      <point x="610" y="217"/>
      <point x="620" y="205"/>
      <point x="620" y="180" type="curve"/>
      <point x="570" y="180"/>
      <point x="450" y="100"/>
      <point x="450" y="50" type="curve"/>
      <point x="240" y="50" type="line"/>
      <point x="240" y="70"/>
      <point x="205" y="110"/>
      <point x="195" y="110" type="curve"/>
      <point x="185" y="110"/>
      <point x="150" y="70"/>
      <point x="150" y="50" type="curve"/>
      <point x="20" y="50" type="line"/>
      <point x="20" y="70"/>
      <point x="30" y="80"/>
      <point x="30" y="145" type="curve"/>
      <point x="30" y="210"/>
      <point x="20" y="220"/>
      <point x="20" y="240" type="curve"/>
      <point x="40" y="240"/>
      <point x="57" y="233"/>
      <point x="107" y="233" type="curve"/>
      <point x="157" y="233"/>
      <point x="175" y="241"/>
      <point x="195" y="241" type="curve"/>
      <point x="195" y="215"/>
      <point x="210" y="180"/>
      <point x="300" y="180" type="curve"/>
      <point x="390" y="180"/>
      <point x="420" y="207"/>
      <point x="420" y="237" type="curve"/>
      <point x="420" y="267"/>
      <point x="390" y="295"/>
      <point x="300" y="295" type="curve"/>
      <point x="235" y="295"/>
      <point x="215" y="285"/>
      <point x="195" y="285" type="curve"/>
      <point x="195" y="335"/>
      <point x="70" y="400"/>
      <point x="20" y="400" type="curve"/>
      <point x="20" y="420"/>
      <point x="30" y="427"/>
      <point x="30" y="487" type="curve"/>
      <point x="30" y="547"/>
      <point x="20" y="555"/>
    </contour>
    <contour>
      <point x="295" y="750" type="line"/>
      <point x="345" y="750" type="line"/>
      <point x="345" y="0" type="line" smooth="yes"/>
      <point x="295" y="0" type="line" smooth="yes"/>
    </contour>
  </outline>
</glyph>
<glyph name="quotesingle" format="1">
  <advance width="250"/>
  <unicode hex="0027"/>
  <outline>
    <contour>
      <point x="70" y="600" type="curve"/>
      <point x="120" y="600" type="line"/>
      <point x="120" y="650"/>
      <point x="160" y="800"/>
      <point x="170" y="800" type="curve"/>
      <point x="20" y="800" type="line"/>
      <point x="30" y="800"/>
      <point x="70" y="650"/>
    </contour>
  </outline>
</glyph>
<glyph name="period" format="1">
  <advance width="250"/>
  <unicode hex="002E"/>
  <outline>
    <contour>
      <point x="20" y="0" type="line"/>
      <point x="20" y="20"/>
      <point x="30" y="30"/>
      <point x="30" y="75" type="curve"/>
      <point x="30" y="120"/>
      <point x="20" y="130"/>
      <point x="20" y="150" type="curve"/>
      <point x="40" y="150"/>
      <point x="50" y="140"/>
      <point x="95" y="140" type="curve"/>
      <point x="140" y="140"/>
      <point x="150" y="150"/>
      <point x="170" y="150" type="curve"/>
      <point x="170" y="130"/>
      <point x="160" y="120"/>
      <point x="160" y="76" type="curve"/>
      <point x="160" y="30"/>
      <point x="170" y="20"/>
      <point x="170" y="0" type="curve"/>
    </contour>
  </outline>
</glyph>
<glyph name="nine" format="1">
  <advance width="700"/>
  <unicode hex="0039"/>
  <outline>
    <contour>
      <point x="470" y="0" type="line"/>
      <point x="470" y="50"/>
      <point x="570" y="150"/>
      <point x="620" y="150" type="curve"/>
      <point x="620" y="170"/>
      <point x="600" y="180"/>
      <point x="600" y="375" type="curve"/>
      <point x="600" y="570"/>
      <point x="620" y="580"/>
      <point x="620" y="600" type="curve"/>
      <point x="570" y="600"/>
      <point x="470" y="700"/>
      <point x="470" y="750" type="curve"/>
      <point x="170" y="750" type="line"/>
      <point x="170" y="700"/>
      <point x="70" y="600"/>
      <point x="20" y="600" type="curve"/>
      <point x="20" y="400" type="line"/>
      <point x="70" y="400"/>
      <point x="170" y="350"/>
      <point x="170" y="300" type="curve"/>
      <point x="320" y="300" type="line"/>
      <point x="320" y="320"/>
      <point x="395" y="350"/>
      <point x="415" y="350" type="curve"/>
      <point x="415" y="200"/>
      <point x="370" y="140"/>
      <point x="290" y="140" type="curve"/>
      <point x="240" y="140"/>
      <point x="210" y="160"/>
      <point x="210" y="200" type="curve"/>
      <point x="210" y="220"/>
      <point x="220" y="230"/>
      <point x="220" y="250" type="curve"/>
      <point x="200" y="250"/>
      <point x="190" y="240"/>
      <point x="120" y="240" type="curve"/>
      <point x="50" y="240"/>
      <point x="40" y="249"/>
      <point x="20" y="250" type="curve"/>
      <point x="20" y="230"/>
      <point x="30" y="220"/>
      <point x="30" y="175" type="curve"/>
      <point x="30" y="130"/>
      <point x="20" y="120"/>
      <point x="20" y="100" type="curve"/>
      <point x="70" y="100"/>
      <point x="170" y="50"/>
      <point x="170" y="0" type="curve"/>
    </contour>
    <contour>
      <point x="270" y="440"/>
      <point x="245" y="475"/>
      <point x="245" y="525" type="curve"/>
      <point x="245" y="575"/>
      <point x="270" y="610"/>
      <point x="320" y="610" type="curve"/>
      <point x="370" y="610"/>
      <point x="395" y="575"/>
      <point x="395" y="525" type="curve"/>
      <point x="395" y="475"/>
      <point x="370" y="440"/>
      <point x="320" y="440" type="curve"/>
    </contour>
  </outline>
</glyph>
<glyph name="less" format="1">
  <advance width="600"/>
  <unicode hex="003C"/>
  <outline>
    <contour>
      <point x="20" y="475" type="curve"/>
      <point x="120" y="475"/>
      <point x="510" y="650"/>
      <point x="520" y="650" type="curve"/>
      <point x="520" y="630"/>
      <point x="510" y="620"/>
      <point x="510" y="549" type="curve"/>
      <point x="510" y="480"/>
      <point x="520" y="470"/>
      <point x="520" y="450" type="curve"/>
      <point x="470" y="450"/>
      <point x="300" y="390"/>
      <point x="300" y="375" type="curve"/>
      <point x="300" y="360"/>
      <point x="470" y="300"/>
      <point x="520" y="300" type="curve"/>
      <point x="520" y="280"/>
      <point x="510" y="270"/>
      <point x="510" y="200" type="curve"/>
      <point x="510" y="130"/>
      <point x="520" y="120"/>
      <point x="520" y="100" type="curve"/>
      <point x="500" y="100"/>
      <point x="120" y="275"/>
      <point x="20" y="275" type="curve"/>
      <point x="20" y="295"/>
      <point x="30" y="305"/>
      <point x="30" y="375" type="curve"/>
      <point x="30" y="445"/>
      <point x="20" y="455"/>
    </contour>
  </outline>
</glyph>
<glyph name="question" format="1">
  <advance width="700"/>
  <unicode hex="003F"/>
  <outline>
    <contour>
      <point x="420" y="225" type="curve"/>
      <point x="420" y="245"/>
      <point x="410" y="255"/>
      <point x="410" y="285" type="curve"/>
      <point x="410" y="355"/>
      <point x="570" y="400"/>
      <point x="620" y="400" type="curve"/>
      <point x="620" y="420"/>
      <point x="610" y="430"/>
      <point x="610" y="500" type="curve"/>
      <point x="610" y="570"/>
      <point x="620" y="580"/>
      <point x="620" y="600" type="curve"/>
      <point x="570" y="600"/>
      <point x="470" y="700"/>
      <point x="470" y="750" type="curve"/>
      <point x="170" y="750" type="line"/>
      <point x="170" y="700"/>
      <point x="70" y="650"/>
      <point x="20" y="650" type="curve"/>
      <point x="20" y="630"/>
      <point x="30" y="620"/>
      <point x="30" y="565" type="curve"/>
      <point x="30" y="510"/>
      <point x="20" y="500"/>
      <point x="20" y="480" type="curve"/>
      <point x="40" y="480"/>
      <point x="50" y="490"/>
      <point x="120" y="490" type="curve"/>
      <point x="190" y="490"/>
      <point x="200" y="480"/>
      <point x="220" y="480" type="curve"/>
      <point x="220" y="500"/>
      <point x="210" y="510"/>
      <point x="210" y="545" type="curve"/>
      <point x="210" y="580"/>
      <point x="240" y="610"/>
      <point x="290" y="610" type="curve"/>
      <point x="340" y="610"/>
      <point x="370" y="580"/>
      <point x="370" y="525" type="curve"/>
      <point x="370" y="450"/>
      <point x="270" y="375"/>
      <point x="220" y="375" type="curve"/>
      <point x="220" y="355"/>
      <point x="230" y="345"/>
      <point x="230" y="300" type="curve" smooth="yes"/>
      <point x="230" y="255"/>
      <point x="220" y="245"/>
      <point x="220" y="225" type="curve"/>
      <point x="300" y="225"/>
      <point x="310" y="200"/>
      <point x="320" y="200" type="curve"/>
      <point x="330" y="200"/>
      <point x="340" y="225"/>
    </contour>
    <component base="period" xOffset="230"/>
  </outline>
</glyph>
<glyph name="A" format="1">
  <advance width="1000"/>
  <unicode hex="0041"/>
  <outline>
    <contour>
      <point x="350" y="650"/>
      <point x="170" y="140"/>
      <point x="70" y="140" type="curve" smooth="yes"/>
      <point x="40" y="140"/>
      <point x="30" y="150"/>
      <point x="20" y="150" type="curve"/>
      <point x="20" y="130"/>
      <point x="30" y="120"/>
      <point x="30" y="75" type="curve" smooth="yes"/>
      <point x="30" y="30"/>
      <point x="20" y="20"/>
      <point x="20" y="0" type="curve"/>
      <point x="420" y="0" type="line"/>
      <point x="420" y="20"/>
      <point x="410" y="30"/>
      <point x="410" y="75" type="curve" smooth="yes"/>
      <point x="410" y="120"/>
      <point x="420" y="130"/>
      <point x="420" y="150" type="curve"/>
      <point x="410" y="150"/>
      <point x="400" y="140"/>
      <point x="370" y="140" type="curve" smooth="yes"/>
      <point x="350" y="140"/>
      <point x="340" y="160"/>
      <point x="340" y="180" type="curve" smooth="yes"/>
      <point x="340" y="220"/>
      <point x="375" y="260"/>
      <point x="450" y="260" type="curve" smooth="yes"/>
      <point x="525" y="260"/>
      <point x="555" y="220"/>
      <point x="555" y="180" type="curve" smooth="yes"/>
      <point x="555" y="160"/>
      <point x="540" y="140"/>
      <point x="520" y="140" type="curve" smooth="yes"/>
      <point x="490" y="140"/>
      <point x="480" y="150"/>
      <point x="470" y="150" type="curve"/>
      <point x="470" y="130"/>
      <point x="480" y="120"/>
      <point x="480" y="75" type="curve" smooth="yes"/>
      <point x="480" y="30"/>
      <point x="470" y="20"/>
      <point x="470" y="0" type="curve"/>
      <point x="920" y="0" type="line"/>
      <point x="920" y="20"/>
      <point x="910" y="30"/>
      <point x="910" y="75" type="curve" smooth="yes"/>
      <point x="910" y="120"/>
      <point x="920" y="130"/>
      <point x="920" y="150" type="curve"/>
      <point x="910" y="150"/>
      <point x="900" y="140"/>
      <point x="870" y="140" type="curve" smooth="yes"/>
      <point x="770" y="140"/>
      <point x="640" y="650"/>
      <point x="640" y="750" type="curve"/>
      <point x="350" y="750" type="line"/>
    </contour>
    <contour>
      <point x="420" y="340"/>
      <point x="405" y="355"/>
      <point x="405" y="380" type="curve" smooth="yes"/>
      <point x="405" y="430"/>
      <point x="455" y="495"/>
      <point x="460" y="495" type="curve" smooth="yes"/>
      <point x="465" y="495"/>
      <point x="499" y="440"/>
      <point x="499" y="390" type="curve" smooth="yes"/>
      <point x="499" y="365"/>
      <point x="490" y="340"/>
      <point x="450" y="340" type="curve" smooth="yes"/>
    </contour>
  </outline>
</glyph>
<glyph name="G" format="1">
  <advance width="850"/>
  <unicode hex="0047"/>
  <note>
    1. I think the bar of the G is to far on each side.
    
    2. The bottom notch is same as top one. Does this need to change?
  </note>
  <outline>
    <contour>
      <point x="490" y="450"/>
      <point x="500" y="460"/>
      <point x="570" y="460" type="curve" smooth="yes"/>
      <point x="640" y="460"/>
      <point x="650" y="450"/>
      <point x="670" y="450" type="curve"/>
      <point x="670" y="470"/>
      <point x="660" y="480"/>
      <point x="660" y="600" type="curve"/>
      <point x="660" y="720"/>
      <point x="670" y="730"/>
      <point x="670" y="750" type="curve"/>
      <point x="520" y="750" type="line"/>
      <point x="520" y="730"/>
      <point x="480" y="680"/>
      <point x="470" y="680" type="curve" smooth="yes"/>
      <point x="460" y="680"/>
      <point x="420" y="730"/>
      <point x="420" y="750" type="curve"/>
      <point x="220" y="750" type="line"/>
      <point x="220" y="700"/>
      <point x="70" y="600"/>
      <point x="20" y="600" type="curve"/>
      <point x="20" y="580"/>
      <point x="40" y="570"/>
      <point x="40" y="375" type="curve"/>
      <point x="40" y="180"/>
      <point x="20" y="170"/>
      <point x="20" y="150" type="curve"/>
      <point x="70" y="150"/>
      <point x="220" y="50"/>
      <point x="220" y="0" type="curve"/>
      <point x="420" y="0" type="line"/>
      <point x="420" y="20"/>
      <point x="460" y="70"/>
      <point x="470" y="70" type="curve"/>
      <point x="480" y="70"/>
      <point x="520" y="20"/>
      <point x="520" y="0" type="curve"/>
      <point x="690" y="0" type="line"/>
      <point x="690" y="50"/>
      <point x="659" y="150"/>
      <point x="659" y="200" type="curve" smooth="yes"/>
      <point x="659" y="230"/>
      <point x="680" y="260"/>
      <point x="720" y="260" type="curve"/>
      <point x="750" y="260"/>
      <point x="760" y="250"/>
      <point x="770" y="250" type="curve"/>
      <point x="770" y="270"/>
      <point x="760" y="283"/>
      <point x="760" y="313" type="curve" smooth="yes"/>
      <point x="760" y="343"/>
      <point x="770" y="355"/>
      <point x="770" y="375" type="curve"/>
      <point x="740" y="375"/>
      <point x="730" y="365"/>
      <point x="570" y="365" type="curve" smooth="yes"/>
      <point x="410" y="365"/>
      <point x="400" y="375"/>
      <point x="370" y="375" type="curve"/>
      <point x="370" y="355"/>
      <point x="380" y="343"/>
      <point x="380" y="313" type="curve" smooth="yes"/>
      <point x="380" y="283"/>
      <point x="370" y="270"/>
      <point x="370" y="250" type="curve"/>
      <point x="380" y="250"/>
      <point x="390" y="260"/>
      <point x="420" y="260" type="curve"/>
      <point x="460" y="260"/>
      <point x="477" y="230"/>
      <point x="477" y="200" type="curve" smooth="yes"/>
      <point x="477" y="180"/>
      <point x="460" y="140"/>
      <point x="400" y="140" type="curve"/>
      <point x="300" y="140"/>
      <point x="250" y="210"/>
      <point x="250" y="375" type="curve" smooth="yes"/>
      <point x="250" y="540"/>
      <point x="300" y="610"/>
      <point x="400" y="610" type="curve" smooth="yes"/>
      <point x="460" y="610"/>
      <point x="480" y="570"/>
      <point x="480" y="520" type="curve" smooth="yes"/>
      <point x="480" y="480"/>
      <point x="470" y="470"/>
      <point x="470" y="450" type="curve"/>
    </contour>
  </outline>
</glyph>
<glyph name="H" format="1">
  <advance width="1050"/>
  <unicode hex="0048"/>
  <outline>
    <contour>
      <point x="470" y="0" type="line"/>
      <point x="470" y="20"/>
      <point x="460" y="25"/>
      <point x="460" y="75" type="curve" smooth="yes"/>
      <point x="460" y="125"/>
      <point x="470" y="130"/>
      <point x="470" y="150" type="curve"/>
      <point x="460" y="150"/>
      <point x="450" y="140"/>
      <point x="420" y="140" type="curve"/>
      <point x="370" y="140"/>
      <point x="352" y="270"/>
      <point x="352" y="325" type="curve"/>
      <point x="638" y="325" type="line"/>
      <point x="638" y="270"/>
      <point x="620" y="140"/>
      <point x="570" y="140" type="curve"/>
      <point x="540" y="140"/>
      <point x="530" y="150"/>
      <point x="520" y="150" type="curve"/>
      <point x="520" y="130"/>
      <point x="530" y="126"/>
      <point x="530" y="75" type="curve" smooth="yes"/>
      <point x="530" y="25"/>
      <point x="520" y="20"/>
      <point x="520" y="0" type="curve"/>
      <point x="970" y="0" type="line"/>
      <point x="970" y="20"/>
      <point x="960" y="25"/>
      <point x="960" y="75" type="curve" smooth="yes"/>
      <point x="960" y="125"/>
      <point x="970" y="130"/>
      <point x="970" y="150" type="curve"/>
      <point x="960" y="150"/>
      <point x="950" y="140"/>
      <point x="920" y="140" type="curve"/>
      <point x="870" y="140"/>
      <point x="850" y="270"/>
      <point x="850" y="375" type="curve"/>
      <point x="850" y="480"/>
      <point x="870" y="610"/>
      <point x="920" y="610" type="curve"/>
      <point x="950" y="610"/>
      <point x="960" y="600"/>
      <point x="970" y="600" type="curve"/>
      <point x="970" y="620"/>
      <point x="960" y="625"/>
      <point x="960" y="675" type="curve" smooth="yes"/>
      <point x="960" y="725"/>
      <point x="970" y="730"/>
      <point x="970" y="750" type="curve"/>
      <point x="520" y="750" type="line"/>
      <point x="520" y="730"/>
      <point x="530" y="725"/>
      <point x="530" y="675" type="curve" smooth="yes"/>
      <point x="530" y="624"/>
      <point x="520" y="620"/>
      <point x="520" y="600" type="curve"/>
      <point x="530" y="600"/>
      <point x="540" y="610"/>
      <point x="570" y="610" type="curve"/>
      <point x="620" y="610"/>
      <point x="638" y="480"/>
      <point x="638" y="425" type="curve"/>
      <point x="352" y="425" type="line"/>
      <point x="352" y="480"/>
      <point x="370" y="610"/>
      <point x="420" y="610" type="curve"/>
      <point x="450" y="610"/>
      <point x="460" y="600"/>
      <point x="470" y="600" type="curve"/>
      <point x="470" y="620"/>
      <point x="460" y="625"/>
      <point x="460" y="675" type="curve" smooth="yes"/>
      <point x="460" y="725"/>
      <point x="470" y="730"/>
      <point x="470" y="750" type="curve"/>
      <point x="20" y="750" type="line"/>
      <point x="20" y="730"/>
      <point x="30" y="725"/>
      <point x="30" y="675" type="curve" smooth="yes"/>
      <point x="30" y="624"/>
      <point x="20" y="620"/>
      <point x="20" y="600" type="curve"/>
      <point x="30" y="600"/>
      <point x="40" y="610"/>
      <point x="70" y="610" type="curve"/>
      <point x="120" y="610"/>
      <point x="140" y="480"/>
      <point x="140" y="375" type="curve"/>
      <point x="140" y="270"/>
      <point x="120" y="140"/>
      <point x="70" y="140" type="curve"/>
      <point x="40" y="140"/>
      <point x="30" y="150"/>
      <point x="20" y="150" type="curve"/>
      <point x="20" y="130"/>
      <point x="30" y="126"/>
      <point x="30" y="75" type="curve" smooth="yes"/>
      <point x="30" y="25"/>
      <point x="20" y="20"/>
      <point x="20" y="0" type="curve"/>
    </contour>
  </outline>
</glyph>
<glyph name="I" format="1">
  <advance width="550"/>
  <unicode hex="0049"/>
  <outline>
    <contour>
      <point x="140" y="375" type="curve"/>
      <point x="140" y="270"/>
      <point x="120" y="140"/>
      <point x="70" y="140" type="curve"/>
      <point x="40" y="140"/>
      <point x="30" y="150"/>
      <point x="20" y="150" type="curve"/>
      <point x="20" y="130"/>
      <point x="29" y="120"/>
      <point x="30" y="75" type="curve" smooth="yes"/>
      <point x="31" y="31"/>
      <point x="20" y="20"/>
      <point x="20" y="0" type="curve"/>
      <point x="470" y="0" type="line"/>
      <point x="470" y="20"/>
      <point x="460" y="30"/>
      <point x="460" y="75" type="curve" smooth="yes"/>
      <point x="460" y="120"/>
      <point x="470" y="130"/>
      <point x="470" y="150" type="curve"/>
      <point x="460" y="150"/>
      <point x="450" y="140"/>
      <point x="420" y="140" type="curve"/>
      <point x="370" y="140"/>
      <point x="350" y="270"/>
      <point x="350" y="375" type="curve"/>
      <point x="350" y="480"/>
      <point x="370" y="610"/>
      <point x="420" y="610" type="curve"/>
      <point x="450" y="610"/>
      <point x="460" y="600"/>
      <point x="470" y="600" type="curve"/>
      <point x="470" y="620"/>
      <point x="460" y="630"/>
      <point x="460" y="675" type="curve" smooth="yes"/>
      <point x="460" y="720"/>
      <point x="470" y="730"/>
      <point x="470" y="750" type="curve"/>
      <point x="20" y="750" type="line"/>
      <point x="20" y="730"/>
      <point x="30" y="720"/>
      <point x="30" y="675" type="curve" smooth="yes"/>
      <point x="30" y="630"/>
      <point x="20" y="620"/>
      <point x="20" y="600" type="curve"/>
      <point x="30" y="600"/>
      <point x="40" y="610"/>
      <point x="70" y="610" type="curve"/>
      <point x="120" y="610"/>
      <point x="140" y="480"/>
    </contour>
  </outline>
</glyph>
<glyph name="K" format="1">
  <advance width="1050"/>
  <unicode hex="004B"/>
  <outline>
    <contour>
      <point x="470" y="0" type="line"/>
      <point x="470" y="20"/>
      <point x="460" y="25"/>
      <point x="460" y="75" type="curve" smooth="yes"/>
      <point x="460" y="125"/>
      <point x="470" y="130"/>
      <point x="470" y="150" type="curve"/>
      <point x="460" y="150"/>
      <point x="450" y="140"/>
      <point x="420" y="140" type="curve"/>
      <point x="370" y="140"/>
      <point x="360" y="240"/>
      <point x="360" y="250" type="curve"/>
      <point x="400" y="250"/>
      <point x="490" y="310"/>
      <point x="500" y="310" type="curve"/>
      <point x="510" y="310"/>
      <point x="600" y="220"/>
      <point x="600" y="170" type="curve" smooth="yes"/>
      <point x="600" y="150"/>
      <point x="580" y="140"/>
      <point x="570" y="140" type="curve"/>
      <point x="540" y="140"/>
      <point x="530" y="150"/>
      <point x="520" y="150" type="curve"/>
      <point x="520" y="130"/>
      <point x="530" y="126"/>
      <point x="530" y="75" type="curve" smooth="yes"/>
      <point x="530" y="25"/>
      <point x="520" y="20"/>
      <point x="520" y="0" type="curve"/>
      <point x="970" y="0" type="line"/>
      <point x="970" y="20"/>
      <point x="960" y="25"/>
      <point x="960" y="75" type="curve" smooth="yes"/>
      <point x="960" y="125"/>
      <point x="970" y="130"/>
      <point x="970" y="150" type="curve"/>
      <point x="960" y="150"/>
      <point x="950" y="140"/>
      <point x="920" y="140" type="curve"/>
      <point x="870" y="140"/>
      <point x="670" y="350"/>
      <point x="670" y="450" type="curve"/>
      <point x="670" y="470"/>
      <point x="820" y="610"/>
      <point x="870" y="610" type="curve"/>
      <point x="900" y="610"/>
      <point x="910" y="600"/>
      <point x="920" y="600" type="curve"/>
      <point x="920" y="620"/>
      <point x="910" y="625"/>
      <point x="910" y="675" type="curve" smooth="yes"/>
      <point x="910" y="725"/>
      <point x="920" y="730"/>
      <point x="920" y="750" type="curve"/>
      <point x="520" y="750" type="line"/>
      <point x="520" y="730"/>
      <point x="530" y="725"/>
      <point x="530" y="675" type="curve" smooth="yes"/>
      <point x="530" y="624"/>
      <point x="520" y="620"/>
      <point x="520" y="600" type="curve"/>
      <point x="530" y="600"/>
      <point x="540" y="610"/>
      <point x="570" y="610" type="curve"/>
      <point x="580" y="610"/>
      <point x="600" y="600"/>
      <point x="600" y="580" type="curve" smooth="yes"/>
      <point x="600" y="530"/>
      <point x="400" y="375"/>
      <point x="350" y="375" type="curve"/>
      <point x="350" y="480"/>
      <point x="370" y="610"/>
      <point x="420" y="610" type="curve"/>
      <point x="450" y="610"/>
      <point x="460" y="600"/>
      <point x="470" y="600" type="curve"/>
      <point x="470" y="620"/>
      <point x="460" y="625"/>
      <point x="460" y="675" type="curve" smooth="yes"/>
      <point x="460" y="725"/>
      <point x="470" y="730"/>
      <point x="470" y="750" type="curve"/>
      <point x="20" y="750" type="line"/>
      <point x="20" y="730"/>
      <point x="30" y="725"/>
      <point x="30" y="675" type="curve" smooth="yes"/>
      <point x="30" y="624"/>
      <point x="20" y="620"/>
      <point x="20" y="600" type="curve"/>
      <point x="30" y="600"/>
      <point x="40" y="610"/>
      <point x="70" y="610" type="curve"/>
      <point x="120" y="610"/>
      <point x="140" y="480"/>
      <point x="140" y="375" type="curve"/>
      <point x="140" y="270"/>
      <point x="120" y="140"/>
      <point x="70" y="140" type="curve"/>
      <point x="40" y="140"/>
      <point x="30" y="150"/>
      <point x="20" y="150" type="curve"/>
      <point x="20" y="130"/>
      <point x="30" y="126"/>
      <point x="30" y="75" type="curve" smooth="yes"/>
      <point x="30" y="25"/>
      <point x="20" y="20"/>
      <point x="20" y="0" type="curve"/>
    </contour>
  </outline>
</glyph>
<glyph name="L" format="1">
  <advance width="850"/>
  <unicode hex="004C"/>
  <outline>
    <contour>
      <point x="20" y="0" type="curve"/>
      <point x="770" y="0" type="line"/>
      <point x="770" y="20"/>
      <point x="760" y="30"/>
      <point x="760" y="150" type="curve"/>
      <point x="760" y="270"/>
      <point x="770" y="280"/>
      <point x="770" y="300" type="curve"/>
      <point x="750" y="300"/>
      <point x="740" y="290"/>
      <point x="670" y="290" type="curve" smooth="yes"/>
      <point x="600" y="290"/>
      <point x="590" y="300"/>
      <point x="570" y="300" type="curve"/>
      <point x="570" y="280"/>
      <point x="580" y="270"/>
      <point x="580" y="225" type="curve" smooth="yes"/>
      <point x="580" y="180"/>
      <point x="550" y="140"/>
      <point x="470" y="140" type="curve"/>
      <point x="360" y="140"/>
      <point x="350" y="240"/>
      <point x="350" y="375" type="curve"/>
      <point x="350" y="480"/>
      <point x="370" y="610"/>
      <point x="420" y="610" type="curve"/>
      <point x="450" y="610"/>
      <point x="460" y="600"/>
      <point x="470" y="600" type="curve"/>
      <point x="470" y="620"/>
      <point x="460" y="625"/>
      <point x="460" y="675" type="curve" smooth="yes"/>
      <point x="460" y="725"/>
      <point x="470" y="730"/>
      <point x="470" y="750" type="curve"/>
      <point x="20" y="750" type="line"/>
      <point x="20" y="730"/>
      <point x="30" y="725"/>
      <point x="30" y="675" type="curve" smooth="yes"/>
      <point x="30" y="624"/>
      <point x="20" y="620"/>
      <point x="20" y="600" type="curve"/>
      <point x="30" y="600"/>
      <point x="40" y="610"/>
      <point x="70" y="610" type="curve"/>
      <point x="120" y="610"/>
      <point x="140" y="480"/>
      <point x="140" y="375" type="curve"/>
      <point x="140" y="270"/>
      <point x="120" y="140"/>
      <point x="70" y="140" type="curve"/>
      <point x="40" y="140"/>
      <point x="30" y="150"/>
      <point x="20" y="150" type="curve"/>
      <point x="20" y="130"/>
      <point x="30" y="126"/>
      <point x="30" y="75" type="curve" smooth="yes"/>
      <point x="30" y="25"/>
      <point x="20" y="20"/>
    </contour>
  </outline>
</glyph>
<glyph name="M" format="1">
  <advance width="1100"/>
  <unicode hex="004D"/>
  <note>
    The middle bottom point seems to be to narrow?
    
    Lower negative space is symetircal / should it be?
  </note>
  <outline>
    <contour>
      <point x="360" y="75" type="curve" smooth="yes"/>
      <point x="360" y="126"/>
      <point x="370" y="130"/>
      <point x="370" y="150" type="curve"/>
      <point x="360" y="150"/>
      <point x="350" y="140"/>
      <point x="320" y="140" type="curve" smooth="yes"/>
      <point x="270" y="140"/>
      <point x="250" y="270"/>
      <point x="250" y="375" type="curve"/>
      <point x="250" y="470"/>
      <point x="260" y="485"/>
      <point x="270" y="485" type="curve"/>
      <point x="290" y="485"/>
      <point x="437" y="120"/>
      <point x="437" y="0" type="curve"/>
      <point x="447" y="0"/>
      <point x="495" y="0"/>
      <point x="505" y="0" type="curve"/>
      <point x="505" y="120"/>
      <point x="650" y="485"/>
      <point x="670" y="485" type="curve"/>
      <point x="680" y="485"/>
      <point x="690" y="470"/>
      <point x="690" y="375" type="curve"/>
      <point x="690" y="270"/>
      <point x="670" y="140"/>
      <point x="620" y="140" type="curve" smooth="yes"/>
      <point x="590" y="140"/>
      <point x="580" y="150"/>
      <point x="570" y="150" type="curve"/>
      <point x="570" y="130"/>
      <point x="580" y="126"/>
      <point x="580" y="75" type="curve" smooth="yes"/>
      <point x="580" y="25"/>
      <point x="570" y="20"/>
      <point x="570" y="0" type="curve"/>
      <point x="1020" y="0" type="line"/>
      <point x="1020" y="20"/>
      <point x="1010" y="25"/>
      <point x="1010" y="75" type="curve" smooth="yes"/>
      <point x="1010" y="126"/>
      <point x="1020" y="130"/>
      <point x="1020" y="150" type="curve"/>
      <point x="1010" y="150"/>
      <point x="1000" y="140"/>
      <point x="970" y="140" type="curve" smooth="yes"/>
      <point x="920" y="140"/>
      <point x="900" y="270"/>
      <point x="900" y="375" type="curve"/>
      <point x="900" y="480"/>
      <point x="920" y="610"/>
      <point x="970" y="610" type="curve"/>
      <point x="1000" y="610"/>
      <point x="1010" y="600"/>
      <point x="1020" y="600" type="curve"/>
      <point x="1020" y="620"/>
      <point x="1010" y="624"/>
      <point x="1010" y="675" type="curve" smooth="yes"/>
      <point x="1010" y="725"/>
      <point x="1020" y="730"/>
      <point x="1020" y="750" type="curve"/>
      <point x="620" y="750" type="line"/>
      <point x="620" y="650"/>
      <point x="545" y="480"/>
      <point x="520" y="480" type="curve"/>
      <point x="495" y="480"/>
      <point x="420" y="650"/>
      <point x="420" y="750" type="curve"/>
      <point x="20" y="750" type="line"/>
      <point x="20" y="730"/>
      <point x="30" y="725"/>
      <point x="30" y="675" type="curve" smooth="yes"/>
      <point x="30" y="624"/>
      <point x="20" y="620"/>
      <point x="20" y="600" type="curve"/>
      <point x="30" y="600"/>
      <point x="40" y="610"/>
      <point x="70" y="610" type="curve"/>
      <point x="120" y="610"/>
      <point x="140" y="480"/>
      <point x="140" y="375" type="curve"/>
      <point x="140" y="270"/>
      <point x="120" y="140"/>
      <point x="70" y="140" type="curve" smooth="yes"/>
      <point x="40" y="140"/>
      <point x="30" y="150"/>
      <point x="20" y="150" type="curve"/>
      <point x="20" y="130"/>
      <point x="30" y="126"/>
      <point x="30" y="75" type="curve" smooth="yes"/>
      <point x="30" y="25"/>
      <point x="20" y="20"/>
      <point x="20" y="0" type="curve"/>
      <point x="370" y="0" type="line"/>
      <point x="370" y="20"/>
      <point x="360" y="25"/>
    </contour>
  </outline>
</glyph>
<glyph name="O" format="1">
  <advance width="800"/>
  <unicode hex="004F"/>
  <outline>
    <contour>
      <point x="370" y="140" type="curve"/>
      <point x="280" y="140"/>
      <point x="250" y="210"/>
      <point x="250" y="375" type="curve"/>
      <point x="250" y="540"/>
      <point x="280" y="610"/>
      <point x="370" y="610" type="curve"/>
      <point x="460" y="610"/>
      <point x="490" y="539"/>
      <point x="490" y="374" type="curve"/>
      <point x="490" y="209"/>
      <point x="460" y="140"/>
    </contour>
    <contour>
      <point x="220" y="0" type="curve"/>
      <point x="520" y="0" type="line"/>
      <point x="520" y="50"/>
      <point x="670" y="150"/>
      <point x="720" y="150" type="curve"/>
      <point x="720" y="170"/>
      <point x="700" y="180"/>
      <point x="700" y="375" type="curve"/>
      <point x="700" y="570"/>
      <point x="720" y="580"/>
      <point x="720" y="600" type="curve"/>
      <point x="670" y="600"/>
      <point x="520" y="700"/>
      <point x="520" y="750" type="curve"/>
      <point x="220" y="750" type="line"/>
      <point x="220" y="700"/>
      <point x="70" y="600"/>
      <point x="20" y="600" type="curve"/>
      <point x="20" y="580"/>
      <point x="40" y="570"/>
      <point x="40" y="375" type="curve"/>
      <point x="40" y="180"/>
      <point x="20" y="170"/>
      <point x="20" y="150" type="curve"/>
      <point x="70" y="150"/>
      <point x="220" y="50"/>
    </contour>
  </outline>
</glyph>
<glyph name="Q" format="1">
  <advance width="900"/>
  <unicode hex="0051"/>
  <outline>
    <contour>
      <point x="370" y="140" type="curve"/>
      <point x="280" y="140"/>
      <point x="250" y="210"/>
      <point x="250" y="375" type="curve"/>
      <point x="250" y="540"/>
      <point x="280" y="610"/>
      <point x="370" y="610" type="curve"/>
      <point x="460" y="610"/>
      <point x="490" y="539"/>
      <point x="490" y="374" type="curve"/>
      <point x="490" y="209"/>
      <point x="460" y="140"/>
    </contour>
    <contour>
      <point x="620" y="0" type="curve"/>
      <point x="820" y="0" type="line"/>
      <point x="820" y="20"/>
      <point x="810" y="30"/>
      <point x="810" y="100" type="curve"/>
      <point x="810" y="170"/>
      <point x="820" y="180"/>
      <point x="820" y="200" type="curve"/>
      <point x="810" y="200"/>
      <point x="800" y="190"/>
      <point x="770" y="190" type="curve"/>
      <point x="720" y="190"/>
      <point x="700" y="250"/>
      <point x="700" y="375" type="curve"/>
      <point x="700" y="570"/>
      <point x="720" y="580"/>
      <point x="720" y="600" type="curve"/>
      <point x="670" y="600"/>
      <point x="520" y="700"/>
      <point x="520" y="750" type="curve"/>
      <point x="220" y="750" type="line"/>
      <point x="220" y="700"/>
      <point x="70" y="600"/>
      <point x="20" y="600" type="curve"/>
      <point x="20" y="580"/>
      <point x="40" y="570"/>
      <point x="40" y="375" type="curve"/>
      <point x="40" y="180"/>
      <point x="20" y="170"/>
      <point x="20" y="150" type="curve"/>
      <point x="70" y="150"/>
      <point x="220" y="50"/>
      <point x="220" y="0" type="curve"/>
      <point x="520" y="0" type="line"/>
      <point x="520" y="20"/>
      <point x="560" y="70"/>
      <point x="570" y="70" type="curve"/>
      <point x="580" y="70"/>
      <point x="620" y="20"/>
    </contour>
    <contour>
      <point x="320" y="250" type="curve"/>
      <point x="470" y="250"/>
      <point x="620" y="50"/>
      <point x="620" y="0" type="curve"/>
      <point x="620" y="200" type="line"/>
      <point x="610" y="200"/>
      <point x="470" y="310"/>
      <point x="370" y="310" type="curve"/>
      <point x="270" y="310"/>
      <point x="230" y="250"/>
      <point x="220" y="250" type="curve"/>
      <point x="220" y="200" type="line"/>
      <point x="230" y="200"/>
      <point x="250" y="250"/>
    </contour>
  </outline>
</glyph>
<glyph name="R" format="1">
  <advance width="950"/>
  <unicode hex="0052"/>
  <outline>
    <contour>
      <point x="460" y="75" type="curve" smooth="yes"/>
      <point x="460" y="125"/>
      <point x="470" y="130"/>
      <point x="470" y="150" type="curve"/>
      <point x="460" y="150"/>
      <point x="450" y="140"/>
      <point x="420" y="140" type="curve"/>
      <point x="370" y="140"/>
      <point x="353" y="270"/>
      <point x="353" y="310" type="curve"/>
      <point x="373" y="310"/>
      <point x="380" y="320"/>
      <point x="440" y="320" type="curve"/>
      <point x="500" y="320"/>
      <point x="545" y="285"/>
      <point x="545" y="225" type="curve"/>
      <point x="545" y="165"/>
      <point x="520" y="145"/>
      <point x="520" y="125" type="curve"/>
      <point x="570" y="125"/>
      <point x="620" y="50"/>
      <point x="620" y="0" type="curve"/>
      <point x="870" y="0" type="line"/>
      <point x="870" y="20"/>
      <point x="860" y="25"/>
      <point x="860" y="75" type="curve"/>
      <point x="860" y="125"/>
      <point x="870" y="130"/>
      <point x="870" y="150" type="curve"/>
      <point x="860" y="150"/>
      <point x="850" y="140"/>
      <point x="820" y="140" type="curve"/>
      <point x="790" y="140"/>
      <point x="760" y="175"/>
      <point x="760" y="225" type="curve"/>
      <point x="760" y="275"/>
      <point x="770" y="280"/>
      <point x="770" y="300" type="curve"/>
      <point x="720" y="300"/>
      <point x="620" y="360"/>
      <point x="620" y="375" type="curve"/>
      <point x="620" y="390"/>
      <point x="720" y="450"/>
      <point x="770" y="450" type="curve"/>
      <point x="770" y="470"/>
      <point x="760" y="480"/>
      <point x="760" y="525" type="curve"/>
      <point x="760" y="570"/>
      <point x="770" y="580"/>
      <point x="770" y="600" type="curve"/>
      <point x="720" y="600"/>
      <point x="620" y="700"/>
      <point x="620" y="750" type="curve"/>
      <point x="20" y="750" type="line"/>
      <point x="20" y="730"/>
      <point x="30" y="720"/>
      <point x="30" y="675" type="curve" smooth="yes"/>
      <point x="30" y="630"/>
      <point x="20" y="620"/>
      <point x="20" y="600" type="curve"/>
      <point x="30" y="600"/>
      <point x="40" y="610"/>
      <point x="70" y="610" type="curve"/>
      <point x="120" y="610"/>
      <point x="140" y="480"/>
      <point x="140" y="375" type="curve"/>
      <point x="140" y="270"/>
      <point x="120" y="140"/>
      <point x="70" y="140" type="curve"/>
      <point x="40" y="140"/>
      <point x="30" y="150"/>
      <point x="20" y="150" type="curve"/>
      <point x="20" y="130"/>
      <point x="30" y="120"/>
      <point x="30" y="75" type="curve" smooth="yes"/>
      <point x="30" y="30"/>
      <point x="20" y="20"/>
      <point x="20" y="0" type="curve"/>
      <point x="470" y="0" type="line"/>
      <point x="470" y="20"/>
      <point x="460" y="25"/>
    </contour>
    <contour>
      <point x="353" y="440" type="line"/>
      <point x="353" y="550"/>
      <point x="400" y="600"/>
      <point x="470" y="600" type="curve" smooth="yes"/>
      <point x="520" y="600"/>
      <point x="545" y="570"/>
      <point x="545" y="535" type="curve" smooth="yes"/>
      <point x="545" y="500"/>
      <point x="520" y="440"/>
      <point x="400" y="440" type="curve"/>
    </contour>
  </outline>
</glyph>
<glyph name="W" format="1">
  <advance width="1250"/>
  <unicode hex="0057"/>
  <note>
    - the counters are symetrical (should they be?)
    - angles of strokes are mathatically correct. (should the be?)
    - opticallly allign?
  </note>
  <outline>
    <contour>
      <point x="615" y="280"/>
      <point x="670" y="100"/>
      <point x="670" y="0" type="curve"/>
      <point x="920" y="0" type="line"/>
      <point x="920" y="118"/>
      <point x="1020" y="610"/>
      <point x="1120" y="610" type="curve"/>
      <point x="1150" y="610"/>
      <point x="1160" y="600"/>
      <point x="1170" y="600" type="curve"/>
      <point x="1170" y="620"/>
      <point x="1160" y="625"/>
      <point x="1160" y="674" type="curve"/>
      <point x="1160" y="725"/>
      <point x="1170" y="730"/>
      <point x="1170" y="750" type="curve"/>
      <point x="820" y="750" type="line"/>
      <point x="820" y="730"/>
      <point x="830" y="725"/>
      <point x="830" y="675" type="curve"/>
      <point x="830" y="625"/>
      <point x="820" y="620"/>
      <point x="820" y="600" type="curve"/>
      <point x="830" y="600"/>
      <point x="840" y="610"/>
      <point x="870" y="610" type="curve"/>
      <point x="900" y="610"/>
      <point x="910" y="580"/>
      <point x="910" y="550" type="curve" smooth="yes"/>
      <point x="910" y="450"/>
      <point x="854" y="300"/>
      <point x="840" y="300" type="curve"/>
      <point x="820" y="300"/>
      <point x="720" y="650"/>
      <point x="720" y="750" type="curve"/>
      <point x="700" y="750"/>
      <point x="590" y="750"/>
      <point x="570" y="750" type="curve"/>
      <point x="570" y="650"/>
      <point x="465" y="275"/>
      <point x="445" y="275" type="curve"/>
      <point x="431" y="275"/>
      <point x="380" y="450"/>
      <point x="380" y="550" type="curve" smooth="yes"/>
      <point x="380" y="580"/>
      <point x="390" y="610"/>
      <point x="420" y="610" type="curve"/>
      <point x="450" y="610"/>
      <point x="460" y="600"/>
      <point x="470" y="600" type="curve"/>
      <point x="470" y="620"/>
      <point x="460" y="625"/>
      <point x="460" y="675" type="curve" smooth="yes"/>
      <point x="460" y="725"/>
      <point x="470" y="730"/>
      <point x="470" y="750" type="curve"/>
      <point x="20" y="750" type="line"/>
      <point x="20" y="730"/>
      <point x="30" y="725"/>
      <point x="30" y="675" type="curve" smooth="yes"/>
      <point x="30" y="625"/>
      <point x="20" y="620"/>
      <point x="20" y="600" type="curve"/>
      <point x="30" y="600"/>
      <point x="40" y="610"/>
      <point x="70" y="610" type="curve"/>
      <point x="170" y="610"/>
      <point x="270" y="100"/>
      <point x="270" y="0" type="curve"/>
      <point x="520" y="0" type="line"/>
      <point x="520" y="100"/>
      <point x="575" y="280"/>
      <point x="595" y="280" type="curve"/>
    </contour>
  </outline>
</glyph>
<glyph name="X" format="1">
  <advance width="950"/>
  <unicode hex="0058"/>
  <outline>
    <contour>
      <point x="470" y="140" type="curve"/>
      <point x="440" y="140"/>
      <point x="430" y="150"/>
      <point x="420" y="150" type="curve"/>
      <point x="420" y="130"/>
      <point x="430" y="126"/>
      <point x="430" y="75" type="curve"/>
      <point x="430" y="25"/>
      <point x="420" y="20"/>
      <point x="420" y="0" type="curve"/>
      <point x="870" y="0" type="line"/>
      <point x="870" y="20"/>
      <point x="860" y="25"/>
      <point x="860" y="75" type="curve"/>
      <point x="860" y="125"/>
      <point x="870" y="130"/>
      <point x="870" y="150" type="curve"/>
      <point x="860" y="150"/>
      <point x="850" y="140"/>
      <point x="820" y="140" type="curve"/>
      <point x="720" y="140"/>
      <point x="580" y="350"/>
      <point x="580" y="370" type="curve"/>
      <point x="580" y="390"/>
      <point x="720" y="610"/>
      <point x="820" y="610" type="curve"/>
      <point x="850" y="610"/>
      <point x="860" y="600"/>
      <point x="870" y="600" type="curve"/>
      <point x="870" y="620"/>
      <point x="860" y="625"/>
      <point x="860" y="675" type="curve"/>
      <point x="860" y="725"/>
      <point x="870" y="732"/>
      <point x="870" y="750" type="curve"/>
      <point x="520" y="750" type="line"/>
      <point x="520" y="730"/>
      <point x="530" y="725"/>
      <point x="530" y="675" type="curve"/>
      <point x="530" y="625"/>
      <point x="520" y="620"/>
      <point x="520" y="600" type="curve"/>
      <point x="530" y="600"/>
      <point x="540" y="610"/>
      <point x="570" y="610" type="curve"/>
      <point x="580" y="610"/>
      <point x="590" y="600"/>
      <point x="590" y="590" type="curve" smooth="yes"/>
      <point x="590" y="550"/>
      <point x="505" y="450"/>
      <point x="495" y="450" type="curve"/>
      <point x="485" y="450"/>
      <point x="400" y="550"/>
      <point x="400" y="590" type="curve" smooth="yes"/>
      <point x="400" y="600"/>
      <point x="410" y="610"/>
      <point x="420" y="610" type="curve" smooth="yes"/>
      <point x="450" y="610"/>
      <point x="460" y="600"/>
      <point x="470" y="600" type="curve"/>
      <point x="470" y="620"/>
      <point x="460" y="625"/>
      <point x="460" y="675" type="curve"/>
      <point x="460" y="725"/>
      <point x="470" y="730"/>
      <point x="470" y="750" type="curve"/>
      <point x="20" y="750" type="line"/>
      <point x="20" y="730"/>
      <point x="30" y="725"/>
      <point x="30" y="675" type="curve"/>
      <point x="30" y="625"/>
      <point x="20" y="620"/>
      <point x="20" y="600" type="curve"/>
      <point x="30" y="600"/>
      <point x="40" y="610"/>
      <point x="70" y="610" type="curve"/>
      <point x="170" y="610"/>
      <point x="310" y="390"/>
      <point x="310" y="370" type="curve"/>
      <point x="310" y="350"/>
      <point x="170" y="140"/>
      <point x="70" y="140" type="curve"/>
      <point x="40" y="140"/>
      <point x="30" y="150"/>
      <point x="20" y="150" type="curve"/>
      <point x="20" y="130"/>
      <point x="30" y="125"/>
      <point x="30" y="75" type="curve"/>
      <point x="30" y="25"/>
      <point x="20" y="20"/>
      <point x="20" y="0" type="curve"/>
      <point x="370" y="0" type="line"/>
      <point x="370" y="20"/>
      <point x="360" y="25"/>
      <point x="360" y="75" type="curve"/>
      <point x="360" y="125"/>
      <point x="370" y="130"/>
      <point x="370" y="150" type="curve"/>
      <point x="360" y="150"/>
      <point x="350" y="140"/>
      <point x="320" y="140" type="curve"/>
      <point x="310" y="140"/>
      <point x="300" y="150"/>
      <point x="300" y="160" type="curve" smooth="yes"/>
      <point x="300" y="200"/>
      <point x="385" y="300"/>
      <point x="395" y="300" type="curve"/>
      <point x="405" y="300"/>
      <point x="490" y="200"/>
      <point x="490" y="160" type="curve" smooth="yes"/>
      <point x="490" y="150"/>
      <point x="480" y="140"/>
    </contour>
  </outline>
</glyph>
<glyph name="backslash" format="1">
  <advance width="500"/>
  <unicode hex="005C"/>
  <note>
    skew is 15
  </note>
  <outline>
    <contour>
      <point x="420" y="0" type="curve"/>
      <point x="220" y="0" type="line"/>
      <point x="215" y="20"/>
      <point x="232" y="31"/>
      <point x="140" y="375" type="curve"/>
      <point x="48" y="720"/>
      <point x="25" y="730"/>
      <point x="20" y="750" type="curve"/>
      <point x="220" y="750" type="line"/>
      <point x="225" y="730"/>
      <point x="208" y="720"/>
      <point x="300" y="375" type="curve"/>
      <point x="392" y="30"/>
      <point x="415" y="20"/>
    </contour>
  </outline>
</glyph>
<glyph name="asciicircum" format="1">
  <advance width="524"/>
  <unicode hex="005E"/>
  <outline>
    <contour>
      <point x="351" y="447"/>
      <point x="351" y="461"/>
      <point x="383" y="493" type="curve"/>
      <point x="415" y="525"/>
      <point x="429" y="525"/>
      <point x="443" y="539" type="curve"/>
      <point x="429" y="552"/>
      <point x="416" y="553"/>
      <point x="330" y="638" type="curve"/>
      <point x="245" y="723"/>
      <point x="245" y="736"/>
      <point x="231" y="750" type="curve"/>
      <point x="218" y="736"/>
      <point x="218" y="723"/>
      <point x="133" y="638" type="curve"/>
      <point x="47" y="553"/>
      <point x="34" y="552"/>
      <point x="20" y="538" type="curve"/>
      <point x="34" y="525"/>
      <point x="48" y="525"/>
      <point x="80" y="493" type="curve"/>
      <point x="112" y="461"/>
      <point x="112" y="447"/>
      <point x="125" y="433" type="curve"/>
      <point x="139" y="447"/>
      <point x="140" y="460"/>
      <point x="172" y="493" type="curve"/>
      <point x="199" y="520"/>
      <point x="215" y="532"/>
      <point x="232" y="532" type="curve" smooth="yes"/>
      <point x="248" y="532"/>
      <point x="265" y="520"/>
      <point x="291" y="493" type="curve" smooth="yes"/>
      <point x="323" y="459"/>
      <point x="324" y="447"/>
      <point x="338" y="433" type="curve"/>
    </contour>
  </outline>
</glyph>
<glyph name="b" format="1">
  <advance width="750"/>
  <unicode hex="0062"/>
  <outline>
    <contour>
      <point x="100" y="0" type="curve"/>
      <point x="270" y="0" type="line"/>
      <point x="270" y="20"/>
      <point x="300" y="60"/>
      <point x="310" y="60" type="curve"/>
      <point x="320" y="60"/>
      <point x="350" y="20"/>
      <point x="350" y="0" type="curve"/>
      <point x="520" y="0" type="line"/>
      <point x="520" y="50"/>
      <point x="620" y="150"/>
      <point x="670" y="150" type="curve"/>
      <point x="670" y="170"/>
      <point x="650" y="182"/>
      <point x="650" y="300" type="curve"/>
      <point x="650" y="420"/>
      <point x="670" y="430"/>
      <point x="670" y="450" type="curve"/>
      <point x="620" y="450"/>
      <point x="520" y="550"/>
      <point x="520" y="600" type="curve"/>
      <point x="370" y="600" type="line"/>
      <point x="370" y="580"/>
      <point x="330" y="540"/>
      <point x="310" y="540" type="curve"/>
      <point x="310" y="750"/>
      <point x="320" y="780"/>
      <point x="320" y="800" type="curve"/>
      <point x="20" y="800" type="line"/>
      <point x="20" y="780"/>
      <point x="30" y="770"/>
      <point x="30" y="725" type="curve"/>
      <point x="30" y="680"/>
      <point x="20" y="670"/>
      <point x="20" y="650" type="curve"/>
      <point x="30" y="650"/>
      <point x="40" y="660"/>
      <point x="70" y="660" type="curve"/>
      <point x="120" y="660"/>
      <point x="140" y="500"/>
      <point x="140" y="300" type="curve"/>
      <point x="140" y="100"/>
      <point x="100" y="20"/>
    </contour>
    <contour>
      <point x="395" y="120" type="curve"/>
      <point x="340" y="120"/>
      <point x="310" y="160"/>
      <point x="310" y="300" type="curve"/>
      <point x="310" y="440"/>
      <point x="340" y="480"/>
      <point x="395" y="480" type="curve"/>
      <point x="450" y="480"/>
      <point x="480" y="440"/>
      <point x="480" y="300" type="curve"/>
      <point x="480" y="160"/>
      <point x="450" y="120"/>
    </contour>
  </outline>
</glyph>
<glyph name="c" format="1">
  <advance width="600"/>
  <unicode hex="0063"/>
  <outline>
    <contour>
      <point x="370" y="350" type="curve"/>
      <point x="390" y="350"/>
      <point x="400" y="360"/>
      <point x="450" y="360" type="curve" smooth="yes"/>
      <point x="490" y="360"/>
      <point x="500" y="350"/>
      <point x="520" y="350" type="curve"/>
      <point x="520" y="369"/>
      <point x="510" y="380"/>
      <point x="510" y="425" type="curve" smooth="yes"/>
      <point x="510" y="470"/>
      <point x="520" y="480"/>
      <point x="520" y="500" type="curve"/>
      <point x="470" y="500"/>
      <point x="420" y="550"/>
      <point x="420" y="600" type="curve"/>
      <point x="170" y="600" type="line"/>
      <point x="170" y="550"/>
      <point x="70" y="450"/>
      <point x="20" y="450" type="curve"/>
      <point x="20" y="430"/>
      <point x="40" y="420"/>
      <point x="40" y="300" type="curve"/>
      <point x="40" y="180"/>
      <point x="20" y="170"/>
      <point x="20" y="150" type="curve"/>
      <point x="70" y="150"/>
      <point x="170" y="50"/>
      <point x="170" y="0" type="curve"/>
      <point x="420" y="0" type="line"/>
      <point x="420" y="50"/>
      <point x="470" y="100"/>
      <point x="520" y="100" type="curve"/>
      <point x="520" y="120"/>
      <point x="510" y="130"/>
      <point x="510" y="175" type="curve" smooth="yes"/>
      <point x="510" y="220"/>
      <point x="520" y="230"/>
      <point x="520" y="250" type="curve"/>
      <point x="500" y="250"/>
      <point x="490" y="240"/>
      <point x="450" y="240" type="curve" smooth="yes"/>
      <point x="400" y="240"/>
      <point x="390" y="250"/>
      <point x="370" y="250" type="curve"/>
      <point x="370" y="230"/>
      <point x="380" y="220"/>
      <point x="380" y="190" type="curve" smooth="yes"/>
      <point x="380" y="150"/>
      <point x="350" y="120"/>
      <point x="315" y="120" type="curve"/>
      <point x="250" y="120"/>
      <point x="210" y="200"/>
      <point x="210" y="300" type="curve" smooth="yes"/>
      <point x="210" y="400"/>
      <point x="250" y="480"/>
      <point x="315" y="480" type="curve" smooth="yes"/>
      <point x="350" y="480"/>
      <point x="380" y="450"/>
      <point x="380" y="410" type="curve" smooth="yes"/>
      <point x="380" y="380"/>
      <point x="370" y="370"/>
    </contour>
  </outline>
</glyph>
<glyph name="f" format="1">
  <advance width="700"/>
  <unicode hex="0066"/>
  <outline>
    <contour>
      <point x="420" y="0" type="line"/>
      <point x="420" y="20"/>
      <point x="410" y="30"/>
      <point x="410" y="75" type="curve" smooth="yes"/>
      <point x="410" y="120"/>
      <point x="420" y="131"/>
      <point x="420" y="150" type="curve"/>
      <point x="410" y="150"/>
      <point x="400" y="140"/>
      <point x="370" y="140" type="curve" smooth="yes"/>
      <point x="331" y="140"/>
      <point x="310" y="180"/>
      <point x="310" y="250" type="curve" smooth="yes"/>
      <point x="310" y="320"/>
      <point x="330" y="360"/>
      <point x="370" y="360" type="curve" smooth="yes"/>
      <point x="400" y="360"/>
      <point x="410" y="350"/>
      <point x="420" y="350" type="curve"/>
      <point x="420" y="370"/>
      <point x="410" y="380"/>
      <point x="410" y="425" type="curve" smooth="yes"/>
      <point x="410" y="470"/>
      <point x="420" y="480"/>
      <point x="420" y="500" type="curve"/>
      <point x="410" y="500"/>
      <point x="400" y="490"/>
      <point x="370" y="490" type="curve" smooth="yes"/>
      <point x="330" y="490"/>
      <point x="310" y="510"/>
      <point x="310" y="575" type="curve" smooth="yes"/>
      <point x="310" y="640"/>
      <point x="350" y="680"/>
      <point x="400" y="680" type="curve"/>
      <point x="450" y="680"/>
      <point x="480" y="650"/>
      <point x="480" y="615" type="curve" smooth="yes"/>
      <point x="480" y="580"/>
      <point x="470" y="570"/>
      <point x="470" y="550" type="curve"/>
      <point x="490" y="550"/>
      <point x="501" y="560"/>
      <point x="545" y="560" type="curve"/>
      <point x="590" y="560"/>
      <point x="600" y="550"/>
      <point x="620" y="550" type="curve"/>
      <point x="620" y="570"/>
      <point x="610" y="580"/>
      <point x="610" y="625" type="curve"/>
      <point x="610" y="670"/>
      <point x="620" y="680"/>
      <point x="620" y="700" type="curve"/>
      <point x="570" y="700"/>
      <point x="520" y="750"/>
      <point x="520" y="800" type="curve"/>
      <point x="310" y="800"/>
      <point x="510" y="800"/>
      <point x="220" y="800" type="curve"/>
      <point x="220" y="750"/>
      <point x="170" y="650"/>
      <point x="120" y="650" type="curve"/>
      <point x="120" y="630"/>
      <point x="130" y="620"/>
      <point x="130" y="575" type="curve" smooth="yes"/>
      <point x="130" y="510"/>
      <point x="110" y="490"/>
      <point x="69" y="490" type="curve" smooth="yes"/>
      <point x="40" y="490"/>
      <point x="30" y="500"/>
      <point x="20" y="500" type="curve"/>
      <point x="20" y="480"/>
      <point x="30" y="470"/>
      <point x="30" y="425" type="curve" smooth="yes"/>
      <point x="30" y="380"/>
      <point x="20" y="370"/>
      <point x="20" y="350" type="curve"/>
      <point x="30" y="350"/>
      <point x="40" y="360"/>
      <point x="70" y="360" type="curve" smooth="yes"/>
      <point x="110" y="360"/>
      <point x="140" y="320"/>
      <point x="140" y="250" type="curve" smooth="yes"/>
      <point x="140" y="180"/>
      <point x="104" y="140"/>
      <point x="70" y="140" type="curve" smooth="yes"/>
      <point x="40" y="140"/>
      <point x="30" y="150"/>
      <point x="20" y="150" type="curve"/>
      <point x="20" y="130"/>
      <point x="30" y="120"/>
      <point x="30" y="75" type="curve" smooth="yes"/>
      <point x="30" y="30"/>
      <point x="20" y="20"/>
      <point x="20" y="0" type="curve"/>
    </contour>
  </outline>
</glyph>
<glyph name="m" format="1">
  <advance width="1200"/>
  <unicode hex="006D"/>
  <outline>
    <contour>
      <point x="370" y="0" type="line"/>
      <point x="370" y="20"/>
      <point x="360" y="30"/>
      <point x="360" y="75" type="curve" smooth="yes"/>
      <point x="360" y="120"/>
      <point x="370" y="131"/>
      <point x="370" y="150" type="curve"/>
      <point x="360" y="150"/>
      <point x="360" y="140"/>
      <point x="350" y="140" type="curve" smooth="yes"/>
      <point x="330" y="140"/>
      <point x="310" y="170"/>
      <point x="310" y="300" type="curve" smooth="yes"/>
      <point x="310" y="430"/>
      <point x="330" y="480"/>
      <point x="395" y="480" type="curve"/>
      <point x="460" y="480"/>
      <point x="480" y="430"/>
      <point x="480" y="300" type="curve" smooth="yes"/>
      <point x="480" y="170"/>
      <point x="460" y="140"/>
      <point x="440" y="140" type="curve" smooth="yes"/>
      <point x="430" y="140"/>
      <point x="430" y="150"/>
      <point x="420" y="150" type="curve"/>
      <point x="420" y="130"/>
      <point x="430" y="120"/>
      <point x="430" y="75" type="curve" smooth="yes"/>
      <point x="430" y="30"/>
      <point x="420" y="20"/>
      <point x="420" y="0" type="curve"/>
      <point x="720" y="0" type="line"/>
      <point x="720" y="20"/>
      <point x="710" y="30"/>
      <point x="710" y="75" type="curve" smooth="yes"/>
      <point x="710" y="120"/>
      <point x="720" y="130"/>
      <point x="720" y="150" type="curve"/>
      <point x="710" y="150"/>
      <point x="700" y="140"/>
      <point x="690" y="140" type="curve" smooth="yes"/>
      <point x="670" y="140"/>
      <point x="660" y="170"/>
      <point x="660" y="300" type="curve"/>
      <point x="660" y="430"/>
      <point x="680" y="480"/>
      <point x="745" y="480" type="curve"/>
      <point x="810" y="480"/>
      <point x="830" y="430"/>
      <point x="830" y="300" type="curve" smooth="yes"/>
      <point x="830" y="170"/>
      <point x="810" y="140"/>
      <point x="790" y="140" type="curve" smooth="yes"/>
      <point x="780" y="140"/>
      <point x="780" y="150"/>
      <point x="770" y="150" type="curve"/>
      <point x="770" y="130"/>
      <point x="780" y="120"/>
      <point x="780" y="75" type="curve" smooth="yes"/>
      <point x="780" y="30"/>
      <point x="770" y="20"/>
      <point x="770" y="0" type="curve"/>
      <point x="1120" y="0" type="line"/>
      <point x="1120" y="20"/>
      <point x="1110" y="30"/>
      <point x="1110" y="75" type="curve" smooth="yes"/>
      <point x="1110" y="120"/>
      <point x="1120" y="130"/>
      <point x="1120" y="150" type="curve"/>
      <point x="1110" y="150"/>
      <point x="1100" y="140"/>
      <point x="1070" y="140" type="curve" smooth="yes"/>
      <point x="1020" y="140"/>
      <point x="1010" y="200"/>
      <point x="1010" y="300" type="curve"/>
      <point x="1010" y="420"/>
      <point x="1020" y="430"/>
      <point x="1020" y="450" type="curve"/>
      <point x="970" y="450"/>
      <point x="870" y="550"/>
      <point x="870" y="600" type="curve"/>
      <point x="701" y="600" type="line"/>
      <point x="701" y="580"/>
      <point x="671" y="540"/>
      <point x="661" y="540" type="curve"/>
      <point x="651" y="540"/>
      <point x="621" y="580"/>
      <point x="621" y="600" type="curve"/>
      <point x="350" y="600" type="line"/>
      <point x="350" y="580"/>
      <point x="320" y="540"/>
      <point x="310" y="540" type="curve"/>
      <point x="300" y="540"/>
      <point x="270" y="580"/>
      <point x="270" y="600" type="curve"/>
      <point x="20" y="600" type="line"/>
      <point x="20" y="580"/>
      <point x="30" y="570"/>
      <point x="30" y="525" type="curve"/>
      <point x="30" y="480"/>
      <point x="20" y="470"/>
      <point x="20" y="450" type="curve"/>
      <point x="30" y="450"/>
      <point x="40" y="460"/>
      <point x="70" y="460" type="curve"/>
      <point x="120" y="460"/>
      <point x="140" y="400"/>
      <point x="140" y="300" type="curve"/>
      <point x="140" y="200"/>
      <point x="120" y="140"/>
      <point x="70" y="140" type="curve" smooth="yes"/>
      <point x="40" y="140"/>
      <point x="30" y="150"/>
      <point x="20" y="150" type="curve"/>
      <point x="20" y="130"/>
      <point x="30" y="120"/>
      <point x="30" y="75" type="curve" smooth="yes"/>
      <point x="30" y="30"/>
      <point x="20" y="20"/>
      <point x="20" y="0" type="curve"/>
    </contour>
  </outline>
</glyph>
<glyph name="s" format="1">
  <advance width="650"/>
  <unicode hex="0073"/>
  <outline>
    <contour>
      <point x="20" y="480" type="curve"/>
      <point x="70" y="480"/>
      <point x="170" y="550"/>
      <point x="170" y="600" type="curve"/>
      <point x="330" y="600" type="line"/>
      <point x="330" y="580"/>
      <point x="360" y="544"/>
      <point x="370" y="544" type="curve"/>
      <point x="380" y="544"/>
      <point x="410" y="580"/>
      <point x="410" y="600" type="curve"/>
      <point x="520" y="600" type="line"/>
      <point x="520" y="580"/>
      <point x="510" y="570"/>
      <point x="510" y="512" type="curve"/>
      <point x="510" y="454"/>
      <point x="520" y="450"/>
      <point x="520" y="430" type="curve"/>
      <point x="500" y="430"/>
      <point x="490" y="440"/>
      <point x="445" y="440" type="curve"/>
      <point x="400" y="440"/>
      <point x="390" y="430"/>
      <point x="370" y="430" type="curve"/>
      <point x="370" y="460"/>
      <point x="340" y="480"/>
      <point x="300" y="480" type="curve"/>
      <point x="240" y="480"/>
      <point x="210" y="450"/>
      <point x="210" y="425" type="curve"/>
      <point x="210" y="400"/>
      <point x="240" y="370"/>
      <point x="320" y="370" type="curve"/>
      <point x="390" y="370"/>
      <point x="400" y="380"/>
      <point x="420" y="380" type="curve"/>
      <point x="420" y="330"/>
      <point x="520" y="280"/>
      <point x="570" y="280" type="curve"/>
      <point x="570" y="260"/>
      <point x="560" y="250"/>
      <point x="560" y="200" type="curve" smooth="yes"/>
      <point x="560" y="150"/>
      <point x="570" y="140"/>
      <point x="570" y="120" type="curve"/>
      <point x="520" y="120"/>
      <point x="420" y="50"/>
      <point x="420" y="0" type="curve"/>
      <point x="220" y="0" type="line"/>
      <point x="220" y="20"/>
      <point x="190" y="56"/>
      <point x="180" y="56" type="curve"/>
      <point x="170" y="56"/>
      <point x="140" y="20"/>
      <point x="140" y="0" type="curve"/>
      <point x="20" y="0" type="line"/>
      <point x="20" y="20"/>
      <point x="30" y="30"/>
      <point x="30" y="85" type="curve"/>
      <point x="30" y="140"/>
      <point x="20" y="150"/>
      <point x="20" y="170" type="curve"/>
      <point x="40" y="170"/>
      <point x="50" y="160"/>
      <point x="95" y="160" type="curve"/>
      <point x="140" y="160"/>
      <point x="150" y="170"/>
      <point x="170" y="170" type="curve"/>
      <point x="170" y="140"/>
      <point x="200" y="120"/>
      <point x="280" y="120" type="curve"/>
      <point x="360" y="120"/>
      <point x="390" y="150"/>
      <point x="390" y="175" type="curve"/>
      <point x="390" y="200"/>
      <point x="360" y="230"/>
      <point x="280" y="230" type="curve"/>
      <point x="200" y="230"/>
      <point x="190" y="220"/>
      <point x="170" y="220" type="curve"/>
      <point x="170" y="270"/>
      <point x="70" y="320"/>
      <point x="20" y="320" type="curve"/>
      <point x="20" y="340"/>
      <point x="30" y="350"/>
      <point x="30" y="400" type="curve"/>
      <point x="30" y="450"/>
      <point x="20" y="460"/>
    </contour>
  </outline>
</glyph>
<glyph name="u" format="1">
  <advance width="850"/>
  <unicode hex="0075"/>
  <outline>
    <contour>
      <point x="670" y="600" type="curve"/>
      <point x="370" y="600" type="line"/>
      <point x="370" y="580"/>
      <point x="380" y="570"/>
      <point x="380" y="525" type="curve" smooth="yes"/>
      <point x="380" y="480"/>
      <point x="370" y="469"/>
      <point x="370" y="450" type="curve"/>
      <point x="380" y="450"/>
      <point x="390" y="460"/>
      <point x="420" y="460" type="curve" smooth="yes"/>
      <point x="470" y="460"/>
      <point x="480" y="400"/>
      <point x="480" y="300" type="curve" smooth="yes"/>
      <point x="480" y="170"/>
      <point x="460" y="120"/>
      <point x="395" y="120" type="curve"/>
      <point x="330" y="120"/>
      <point x="310" y="170"/>
      <point x="310" y="300" type="curve" smooth="yes"/>
      <point x="310" y="570"/>
      <point x="320" y="580"/>
      <point x="320" y="600" type="curve"/>
      <point x="20" y="600" type="line"/>
      <point x="20" y="580"/>
      <point x="30" y="570"/>
      <point x="30" y="525" type="curve" smooth="yes"/>
      <point x="30" y="480"/>
      <point x="20" y="470"/>
      <point x="20" y="450" type="curve"/>
      <point x="30" y="450"/>
      <point x="40" y="460"/>
      <point x="70" y="460" type="curve" smooth="yes"/>
      <point x="120" y="460"/>
      <point x="130" y="400"/>
      <point x="130" y="300" type="curve"/>
      <point x="130" y="180"/>
      <point x="120" y="170"/>
      <point x="120" y="150" type="curve"/>
      <point x="170" y="150"/>
      <point x="220" y="50"/>
      <point x="220" y="0" type="curve"/>
      <point x="440" y="0" type="line"/>
      <point x="440" y="20"/>
      <point x="470" y="60"/>
      <point x="480" y="60" type="curve"/>
      <point x="490" y="60"/>
      <point x="520" y="20"/>
      <point x="520" y="0" type="curve"/>
      <point x="770" y="0" type="line"/>
      <point x="770" y="20"/>
      <point x="760" y="30"/>
      <point x="760" y="75" type="curve"/>
      <point x="760" y="120"/>
      <point x="770" y="130"/>
      <point x="770" y="150" type="curve"/>
      <point x="760" y="150"/>
      <point x="750" y="140"/>
      <point x="720" y="140" type="curve"/>
      <point x="670" y="140"/>
      <point x="660" y="200"/>
      <point x="660" y="300" type="curve"/>
      <point x="660" y="570"/>
      <point x="670" y="580"/>
    </contour>
  </outline>
</glyph>
<glyph name="x" format="1">
  <advance width="800"/>
  <unicode hex="0078"/>
  <outline>
    <contour>
      <point x="400" y="140" type="curve"/>
      <point x="390" y="140"/>
      <point x="380" y="150"/>
      <point x="370" y="150" type="curve"/>
      <point x="370" y="130"/>
      <point x="380" y="121"/>
      <point x="380" y="75" type="curve"/>
      <point x="380" y="30"/>
      <point x="370" y="20"/>
      <point x="370" y="0" type="curve"/>
      <point x="720" y="0" type="line"/>
      <point x="720" y="20"/>
      <point x="710" y="30"/>
      <point x="710" y="75" type="curve"/>
      <point x="710" y="120"/>
      <point x="720" y="130"/>
      <point x="720" y="150" type="curve"/>
      <point x="710" y="150"/>
      <point x="700" y="140"/>
      <point x="670" y="140" type="curve"/>
      <point x="620" y="140"/>
      <point x="470" y="280"/>
      <point x="470" y="300" type="curve"/>
      <point x="470" y="320"/>
      <point x="620" y="460"/>
      <point x="670" y="460" type="curve"/>
      <point x="700" y="460"/>
      <point x="710" y="450"/>
      <point x="720" y="450" type="curve"/>
      <point x="720" y="470"/>
      <point x="712" y="480"/>
      <point x="712" y="525" type="curve"/>
      <point x="712" y="570"/>
      <point x="720" y="580"/>
      <point x="720" y="600" type="curve"/>
      <point x="420" y="600" type="line"/>
      <point x="420" y="580"/>
      <point x="428" y="570"/>
      <point x="428" y="525" type="curve"/>
      <point x="428" y="480"/>
      <point x="420" y="470"/>
      <point x="420" y="450" type="curve"/>
      <point x="430" y="450"/>
      <point x="440" y="460"/>
      <point x="450" y="460" type="curve"/>
      <point x="460" y="460"/>
      <point x="470" y="450"/>
      <point x="470" y="440" type="curve" smooth="yes"/>
      <point x="470" y="400"/>
      <point x="405" y="350"/>
      <point x="395" y="350" type="curve"/>
      <point x="385" y="350"/>
      <point x="320" y="400"/>
      <point x="320" y="440" type="curve" smooth="yes"/>
      <point x="320" y="450"/>
      <point x="330" y="460"/>
      <point x="340" y="460" type="curve" smooth="yes"/>
      <point x="350" y="460"/>
      <point x="360" y="450"/>
      <point x="370" y="450" type="curve"/>
      <point x="370" y="470"/>
      <point x="362" y="480"/>
      <point x="362" y="525" type="curve"/>
      <point x="362" y="570"/>
      <point x="370" y="580"/>
      <point x="370" y="600" type="curve"/>
      <point x="20" y="600" type="line"/>
      <point x="20" y="580"/>
      <point x="30" y="570"/>
      <point x="30" y="525" type="curve"/>
      <point x="30" y="480"/>
      <point x="20" y="470"/>
      <point x="20" y="450" type="curve"/>
      <point x="30" y="450"/>
      <point x="40" y="460"/>
      <point x="70" y="460" type="curve"/>
      <point x="120" y="460"/>
      <point x="272" y="316"/>
      <point x="272" y="300" type="curve"/>
      <point x="272" y="284"/>
      <point x="120" y="140"/>
      <point x="70" y="140" type="curve"/>
      <point x="40" y="140"/>
      <point x="30" y="150"/>
      <point x="20" y="150" type="curve"/>
      <point x="20" y="130"/>
      <point x="30" y="120"/>
      <point x="30" y="75" type="curve"/>
      <point x="30" y="30"/>
      <point x="20" y="20"/>
      <point x="20" y="0" type="curve"/>
      <point x="320" y="0" type="line"/>
      <point x="320" y="20"/>
      <point x="310" y="30"/>
      <point x="310" y="75" type="curve"/>
      <point x="310" y="120"/>
      <point x="320" y="130"/>
      <point x="320" y="150" type="curve"/>
      <point x="312" y="150"/>
      <point x="300" y="140"/>
      <point x="290" y="140" type="curve"/>
      <point x="280" y="140"/>
      <point x="270" y="150"/>
      <point x="270" y="160" type="curve" smooth="yes"/>
      <point x="270" y="200"/>
      <point x="335" y="250"/>
      <point x="345" y="250" type="curve"/>
      <point x="355" y="250"/>
      <point x="420" y="200"/>
      <point x="420" y="160" type="curve" smooth="yes"/>
      <point x="420" y="150"/>
      <point x="410" y="140"/>
    </contour>
  </outline>
</glyph>
<glyph name="z" format="1">
  <advance width="700"/>
  <unicode hex="007A"/>
  <outline>
    <contour>
      <point x="190" y="460"/>
      <point x="160" y="440"/>
      <point x="160" y="400" type="curve"/>
      <point x="160" y="380"/>
      <point x="170" y="370"/>
      <point x="170" y="350" type="curve"/>
      <point x="150" y="350"/>
      <point x="140" y="360"/>
      <point x="95" y="360" type="curve"/>
      <point x="50" y="360"/>
      <point x="40" y="350"/>
      <point x="20" y="350" type="curve"/>
      <point x="20" y="370"/>
      <point x="30" y="380"/>
      <point x="30" y="475" type="curve"/>
      <point x="30" y="570"/>
      <point x="20" y="580"/>
      <point x="20" y="600" type="curve"/>
      <point x="600" y="600" type="line"/>
      <point x="600" y="580"/>
      <point x="360" y="300"/>
      <point x="360" y="200" type="curve" smooth="yes"/>
      <point x="360" y="160"/>
      <point x="390" y="140"/>
      <point x="420" y="140" type="curve"/>
      <point x="450" y="140"/>
      <point x="480" y="160"/>
      <point x="480" y="200" type="curve"/>
      <point x="480" y="220"/>
      <point x="470" y="230"/>
      <point x="470" y="250" type="curve"/>
      <point x="490" y="250"/>
      <point x="500" y="240"/>
      <point x="545" y="240" type="curve"/>
      <point x="590" y="240"/>
      <point x="600" y="250"/>
      <point x="620" y="250" type="curve"/>
      <point x="620" y="230"/>
      <point x="610" y="220"/>
      <point x="610" y="125" type="curve"/>
      <point x="610" y="32"/>
      <point x="620" y="20"/>
      <point x="620" y="0" type="curve"/>
      <point x="40" y="0" type="line"/>
      <point x="40" y="20"/>
      <point x="280" y="300"/>
      <point x="280" y="400" type="curve"/>
      <point x="280" y="440"/>
      <point x="250" y="460"/>
      <point x="220" y="460" type="curve"/>
    </contour>
  </outline>
</glyph>
<glyph name="bar" format="1">
  <advance width="250"/>
  <unicode hex="007C"/>
  <outline>
    <contour>
      <point x="20" y="-150" type="line"/>
      <point x="20" y="-130"/>
      <point x="40" y="-100"/>
      <point x="40" y="325" type="curve"/>
      <point x="40" y="750"/>
      <point x="20" y="780"/>
      <point x="20" y="800" type="curve"/>
      <point x="170" y="800" type="line"/>
      <point x="170" y="780"/>
      <point x="150" y="750"/>
      <point x="150" y="325" type="curve"/>
      <point x="150" y="-99"/>
      <point x="170" y="-130"/>
      <point x="170" y="-150" type="curve"/>
    </contour>
  </outline>
</glyph>
<glyph name="cent" format="1">
  <advance width="600"/>
  <unicode hex="00A2"/>
  <outline>
    <contour>
      <point x="270" y="700" type="line"/>
      <point x="270" y="0" type="line" smooth="yes"/>
      <point x="320" y="0" type="line" smooth="yes"/>
      <point x="320" y="700" type="line"/>
    </contour>
    <component base="c" yOffset="50"/>
  </outline>
</glyph>
<glyph name="brokenbar" format="1">
  <advance width="250"/>
  <unicode hex="00A6"/>
  <outline>
    <contour>
      <point x="20" y="400" type="line"/>
      <point x="20" y="420"/>
      <point x="35" y="450"/>
      <point x="35" y="600" type="curve"/>
      <point x="35" y="750"/>
      <point x="20" y="780"/>
      <point x="20" y="800" type="curve"/>
      <point x="170" y="800" type="line"/>
      <point x="170" y="780"/>
      <point x="155" y="750"/>
      <point x="155" y="600" type="curve"/>
      <point x="155" y="450"/>
      <point x="170" y="420"/>
      <point x="170" y="400" type="curve"/>
    </contour>
    <contour>
      <point x="20" y="-150" type="line"/>
      <point x="20" y="-130"/>
      <point x="35" y="-100"/>
      <point x="35" y="50" type="curve"/>
      <point x="35" y="200"/>
      <point x="20" y="230"/>
      <point x="20" y="250" type="curve"/>
      <point x="170" y="250" type="line"/>
      <point x="170" y="230"/>
      <point x="155" y="200"/>
      <point x="155" y="50" type="curve"/>
      <point x="155" y="-100"/>
      <point x="170" y="-130"/>
      <point x="170" y="-150" type="curve"/>
    </contour>
  </outline>
</glyph>
<glyph name="section" format="1">
  <advance width="650"/>
  <unicode hex="00A7"/>
  <outline>
    <contour>
      <point x="180" y="56" type="curve"/>
      <point x="190" y="56"/>
      <point x="220" y="20"/>
      <point x="220" y="0" type="curve"/>
      <point x="420" y="0" type="line"/>
      <point x="420" y="50"/>
      <point x="520" y="120"/>
      <point x="570" y="120" type="curve"/>
      <point x="570" y="140"/>
      <point x="560" y="150"/>
      <point x="560" y="200" type="curve" smooth="yes"/>
      <point x="560" y="250"/>
      <point x="570" y="260"/>
      <point x="570" y="280" type="curve"/>
      <point x="550" y="280"/>
      <point x="510" y="295"/>
      <point x="510" y="300" type="curve"/>
      <point x="510" y="305"/>
      <point x="550" y="320"/>
      <point x="570" y="320" type="curve"/>
      <point x="570" y="340"/>
      <point x="560" y="350"/>
      <point x="560" y="400" type="curve" smooth="yes"/>
      <point x="560" y="450"/>
      <point x="570" y="460"/>
      <point x="570" y="480" type="curve"/>
      <point x="520" y="480"/>
      <point x="420" y="530"/>
      <point x="420" y="580" type="curve"/>
      <point x="400" y="580"/>
      <point x="390" y="570"/>
      <point x="320" y="570" type="curve"/>
      <point x="240" y="570"/>
      <point x="210" y="600"/>
      <point x="210" y="625" type="curve"/>
      <point x="210" y="650"/>
      <point x="240" y="680"/>
      <point x="300" y="680" type="curve"/>
      <point x="340" y="680"/>
      <point x="370" y="660"/>
      <point x="370" y="630" type="curve"/>
      <point x="390" y="630"/>
      <point x="400" y="640"/>
      <point x="445" y="640" type="curve"/>
      <point x="490" y="640"/>
      <point x="500" y="630"/>
      <point x="520" y="630" type="curve"/>
      <point x="520" y="650"/>
      <point x="510" y="654"/>
      <point x="510" y="712" type="curve"/>
      <point x="510" y="770"/>
      <point x="520" y="780"/>
      <point x="520" y="800" type="curve"/>
      <point x="410" y="800" type="line"/>
      <point x="410" y="780"/>
      <point x="380" y="744"/>
      <point x="370" y="744" type="curve"/>
      <point x="360" y="744"/>
      <point x="330" y="780"/>
      <point x="330" y="800" type="curve"/>
      <point x="170" y="800" type="line"/>
      <point x="170" y="750"/>
      <point x="70" y="680"/>
      <point x="20" y="680" type="curve"/>
      <point x="20" y="660"/>
      <point x="30" y="650"/>
      <point x="30" y="600" type="curve"/>
      <point x="30" y="550"/>
      <point x="20" y="540"/>
      <point x="20" y="520" type="curve"/>
      <point x="40" y="520"/>
      <point x="89" y="505"/>
      <point x="89" y="500" type="curve"/>
      <point x="89" y="495"/>
      <point x="40" y="480"/>
      <point x="20" y="480" type="curve"/>
      <point x="20" y="460"/>
      <point x="30" y="450"/>
      <point x="30" y="400" type="curve"/>
      <point x="30" y="350"/>
      <point x="20" y="340"/>
      <point x="20" y="320" type="curve"/>
      <point x="70" y="320"/>
      <point x="170" y="270"/>
      <point x="170" y="220" type="curve"/>
      <point x="190" y="220"/>
      <point x="200" y="230"/>
      <point x="280" y="230" type="curve"/>
      <point x="360" y="230"/>
      <point x="390" y="200"/>
      <point x="390" y="175" type="curve"/>
      <point x="390" y="150"/>
      <point x="360" y="120"/>
      <point x="280" y="120" type="curve"/>
      <point x="200" y="120"/>
      <point x="170" y="140"/>
      <point x="170" y="170" type="curve"/>
      <point x="150" y="170"/>
      <point x="140" y="160"/>
      <point x="95" y="160" type="curve"/>
      <point x="50" y="160"/>
      <point x="40" y="170"/>
      <point x="20" y="170" type="curve"/>
      <point x="20" y="150"/>
      <point x="30" y="140"/>
      <point x="30" y="85" type="curve"/>
      <point x="30" y="30"/>
      <point x="20" y="20"/>
      <point x="20" y="0" type="curve"/>
      <point x="140" y="0" type="line"/>
      <point x="140" y="20"/>
      <point x="170" y="56"/>
    </contour>
    <contour>
      <point x="96" y="332" type="line"/>
      <point x="97" y="331"/>
      <point x="97" y="330"/>
      <point x="95" y="330" type="curve"/>
    </contour>
    <contour>
      <point x="160" y="440" type="curve"/>
      <point x="160" y="470"/>
      <point x="180" y="480"/>
      <point x="210" y="480" type="curve"/>
      <point x="320" y="480"/>
      <point x="430" y="410"/>
      <point x="430" y="360" type="curve"/>
      <point x="430" y="330"/>
      <point x="410" y="320"/>
      <point x="380" y="320" type="curve"/>
      <point x="270" y="320"/>
      <point x="160" y="390"/>
    </contour>
  </outline>
</glyph>
<glyph name="ordfeminine" format="1">
  <advance width="243"/>
  <unicode hex="00AA"/>
  <outline>
    <contour>
      <point x="163" y="750" type="line"/>
      <point x="163" y="755"/>
      <point x="160" y="758"/>
      <point x="160" y="769" type="curve"/>
      <point x="160" y="780"/>
      <point x="163" y="783"/>
      <point x="163" y="788" type="curve"/>
      <point x="160" y="788"/>
      <point x="158" y="785"/>
      <point x="150" y="785" type="curve"/>
      <point x="138" y="785"/>
      <point x="133" y="813"/>
      <point x="133" y="825" type="curve"/>
      <point x="133" y="855"/>
      <point x="138" y="858"/>
      <point x="138" y="863" type="curve"/>
      <point x="125" y="863"/>
      <point x="100" y="888"/>
      <point x="100" y="900" type="curve"/>
      <point x="38" y="900" type="line"/>
      <point x="38" y="888"/>
      <point x="25" y="875"/>
      <point x="12" y="875" type="curve"/>
      <point x="12" y="873"/>
      <point x="15" y="870"/>
      <point x="15" y="863" type="curve"/>
      <point x="15" y="855"/>
      <point x="12" y="853"/>
      <point x="12" y="850" type="curve"/>
      <point x="17" y="850"/>
      <point x="20" y="853"/>
      <point x="31" y="853" type="curve"/>
      <point x="43" y="853"/>
      <point x="45" y="850"/>
      <point x="50" y="850" type="curve"/>
      <point x="50" y="858"/>
      <point x="58" y="863"/>
      <point x="68" y="863" type="curve"/>
      <point x="80" y="863"/>
      <point x="90" y="860"/>
      <point x="90" y="850" type="curve"/>
      <point x="90" y="840"/>
      <point x="80" y="835"/>
      <point x="63" y="835" type="curve" smooth="yes"/>
      <point x="45" y="835"/>
      <point x="43" y="838"/>
      <point x="38" y="838" type="curve"/>
      <point x="38" y="825"/>
      <point x="12" y="813"/>
      <point x="0" y="813" type="curve"/>
      <point x="0" y="808"/>
      <point x="2" y="805"/>
      <point x="2" y="794" type="curve"/>
      <point x="2" y="783"/>
      <point x="0" y="780"/>
      <point x="0" y="775" type="curve"/>
      <point x="12" y="775"/>
      <point x="25" y="763"/>
      <point x="25" y="750" type="curve"/>
      <point x="80" y="750" type="line"/>
      <point x="80" y="755"/>
      <point x="88" y="765"/>
      <point x="90" y="765" type="curve"/>
      <point x="93" y="765"/>
      <point x="100" y="755"/>
      <point x="100" y="750" type="curve"/>
    </contour>
    <contour>
      <point x="90" y="815" type="line"/>
      <point x="90" y="793"/>
      <point x="78" y="780"/>
      <point x="65" y="780" type="curve" smooth="yes"/>
      <point x="55" y="780"/>
      <point x="50" y="786"/>
      <point x="50" y="794" type="curve" smooth="yes"/>
      <point x="50" y="804"/>
      <point x="60" y="815"/>
      <point x="83" y="815" type="curve"/>
    </contour>
  </outline>
</glyph>
<glyph name="guillemotleft" format="1">
  <advance width="718"/>
  <unicode hex="00AB"/>
  <outline>
    <contour>
      <point x="324" y="496"/>
      <point x="310" y="496"/>
      <point x="278" y="528" type="curve"/>
      <point x="246" y="560"/>
      <point x="246" y="574"/>
      <point x="232" y="588" type="curve"/>
      <point x="218" y="574"/>
      <point x="218" y="560"/>
      <point x="133" y="475" type="curve"/>
      <point x="48" y="390"/>
      <point x="34" y="390"/>
      <point x="20" y="376" type="curve"/>
      <point x="34" y="362"/>
      <point x="48" y="362"/>
      <point x="133" y="277" type="curve"/>
      <point x="218" y="192"/>
      <point x="218" y="178"/>
      <point x="232" y="164" type="curve"/>
      <point x="246" y="178"/>
      <point x="246" y="192"/>
      <point x="278" y="224" type="curve"/>
      <point x="310" y="256"/>
      <point x="324" y="256"/>
      <point x="338" y="270" type="curve"/>
      <point x="324" y="284"/>
      <point x="310" y="284"/>
      <point x="278" y="316" type="curve"/>
      <point x="251" y="343"/>
      <point x="238" y="359"/>
      <point x="238" y="376" type="curve" smooth="yes"/>
      <point x="238" y="393"/>
      <point x="251" y="410"/>
      <point x="278" y="436" type="curve" smooth="yes"/>
      <point x="311" y="467"/>
      <point x="324" y="468"/>
      <point x="338" y="482" type="curve"/>
    </contour>
    <contour>
      <point x="624" y="496"/>
      <point x="610" y="496"/>
      <point x="578" y="528" type="curve"/>
      <point x="546" y="560"/>
      <point x="546" y="574"/>
      <point x="532" y="588" type="curve"/>
      <point x="518" y="574"/>
      <point x="518" y="560"/>
      <point x="433" y="475" type="curve"/>
      <point x="348" y="390"/>
      <point x="334" y="390"/>
      <point x="320" y="376" type="curve"/>
      <point x="334" y="362"/>
      <point x="348" y="362"/>
      <point x="433" y="277" type="curve"/>
      <point x="518" y="192"/>
      <point x="518" y="178"/>
      <point x="532" y="164" type="curve"/>
      <point x="546" y="178"/>
      <point x="546" y="192"/>
      <point x="578" y="224" type="curve"/>
      <point x="610" y="256"/>
      <point x="624" y="256"/>
      <point x="638" y="270" type="curve"/>
      <point x="624" y="284"/>
      <point x="610" y="284"/>
      <point x="578" y="316" type="curve"/>
      <point x="551" y="343"/>
      <point x="538" y="359"/>
      <point x="538" y="376" type="curve" smooth="yes"/>
      <point x="538" y="393"/>
      <point x="551" y="410"/>
      <point x="578" y="436" type="curve" smooth="yes"/>
      <point x="611" y="467"/>
      <point x="624" y="468"/>
      <point x="638" y="482" type="curve"/>
    </contour>
  </outline>
</glyph>
<glyph name="macron" format="1">
  <advance width="550"/>
  <unicode hex="00AF"/>
  <outline>
    <contour>
      <point x="470" y="710" type="curve"/>
      <point x="450" y="710"/>
      <point x="440" y="705"/>
      <point x="245" y="705" type="curve"/>
      <point x="50" y="705"/>
      <point x="40" y="710"/>
      <point x="20" y="710" type="curve"/>
      <point x="20" y="700"/>
      <point x="25" y="690"/>
      <point x="25" y="675" type="curve"/>
      <point x="25" y="660"/>
      <point x="20" y="650"/>
      <point x="20" y="640" type="curve"/>
      <point x="40" y="640"/>
      <point x="50" y="645"/>
      <point x="245" y="645" type="curve"/>
      <point x="440" y="645"/>
      <point x="450" y="640"/>
      <point x="470" y="640" type="curve"/>
      <point x="470" y="650"/>
      <point x="465" y="660"/>
      <point x="465" y="675" type="curve"/>
      <point x="465" y="690"/>
      <point x="470" y="700"/>
    </contour>
  </outline>
</glyph>
<glyph name="twosuperior" format="1">
  <advance width="200"/>
  <unicode hex="00B2"/>
  <outline>
    <contour>
      <point x="120" y="795" type="curve"/>
      <point x="110" y="795"/>
      <point x="110" y="785"/>
      <point x="73" y="785" type="curve"/>
      <point x="73" y="795"/>
      <point x="110" y="830"/>
      <point x="120" y="830" type="curve"/>
      <point x="120" y="835"/>
      <point x="118" y="840"/>
      <point x="118" y="850" type="curve"/>
      <point x="118" y="860"/>
      <point x="120" y="865"/>
      <point x="120" y="870" type="curve"/>
      <point x="110" y="870"/>
      <point x="90" y="890"/>
      <point x="90" y="900" type="curve"/>
      <point x="30" y="900" type="line"/>
      <point x="30" y="890"/>
      <point x="10" y="880"/>
      <point x="0" y="880" type="curve"/>
      <point x="0" y="875"/>
      <point x="3" y="870"/>
      <point x="3" y="863" type="curve"/>
      <point x="3" y="855"/>
      <point x="0" y="850"/>
      <point x="0" y="845" type="curve"/>
      <point x="4" y="845"/>
      <point x="6" y="848"/>
      <point x="20" y="848" type="curve"/>
      <point x="34" y="848"/>
      <point x="36" y="845"/>
      <point x="40" y="845" type="curve"/>
      <point x="40" y="848"/>
      <point x="38" y="850"/>
      <point x="38" y="860" type="curve"/>
      <point x="38" y="865"/>
      <point x="43" y="873"/>
      <point x="53" y="873" type="curve"/>
      <point x="65" y="873"/>
      <point x="70" y="865"/>
      <point x="70" y="855" type="curve"/>
      <point x="70" y="830"/>
      <point x="10" y="785"/>
      <point x="0" y="785" type="curve"/>
      <point x="0" y="780"/>
      <point x="2" y="775"/>
      <point x="2" y="768" type="curve"/>
      <point x="2" y="760"/>
      <point x="0" y="755"/>
      <point x="0" y="750" type="curve"/>
      <point x="120" y="750" type="line"/>
      <point x="120" y="755"/>
      <point x="118" y="760"/>
      <point x="118" y="773" type="curve"/>
      <point x="118" y="785"/>
      <point x="120" y="790"/>
    </contour>
  </outline>
</glyph>
<glyph name="threesuperior" format="1">
  <advance width="200"/>
  <unicode hex="00B3"/>
  <outline>
    <contour>
      <point x="90" y="750" type="line"/>
      <point x="90" y="760"/>
      <point x="110" y="780"/>
      <point x="120" y="780" type="curve"/>
      <point x="120" y="783"/>
      <point x="118" y="785"/>
      <point x="118" y="795" type="curve"/>
      <point x="118" y="805"/>
      <point x="120" y="808"/>
      <point x="120" y="810" type="curve"/>
      <point x="110" y="810"/>
      <point x="90" y="823"/>
      <point x="90" y="825" type="curve"/>
      <point x="90" y="828"/>
      <point x="110" y="840"/>
      <point x="120" y="840" type="curve"/>
      <point x="120" y="843"/>
      <point x="118" y="845"/>
      <point x="118" y="855" type="curve"/>
      <point x="118" y="865"/>
      <point x="120" y="868"/>
      <point x="120" y="870" type="curve"/>
      <point x="110" y="870"/>
      <point x="90" y="890"/>
      <point x="90" y="900" type="curve"/>
      <point x="30" y="900" type="line"/>
      <point x="30" y="890"/>
      <point x="10" y="880"/>
      <point x="0" y="880" type="curve"/>
      <point x="0" y="875"/>
      <point x="3" y="870"/>
      <point x="3" y="863" type="curve"/>
      <point x="3" y="855"/>
      <point x="0" y="850"/>
      <point x="0" y="845" type="curve"/>
      <point x="5" y="845"/>
      <point x="10" y="848"/>
      <point x="20" y="848" type="curve"/>
      <point x="30" y="848"/>
      <point x="35" y="845"/>
      <point x="40" y="845" type="curve"/>
      <point x="40" y="848"/>
      <point x="38" y="850"/>
      <point x="38" y="859" type="curve"/>
      <point x="38" y="868"/>
      <point x="45" y="873"/>
      <point x="53" y="873" type="curve"/>
      <point x="65" y="873"/>
      <point x="70" y="865"/>
      <point x="70" y="855" type="curve"/>
      <point x="70" y="844"/>
      <point x="65" y="838"/>
      <point x="55" y="838" type="curve"/>
      <point x="50" y="838"/>
      <point x="45" y="840"/>
      <point x="40" y="840" type="curve"/>
      <point x="40" y="838"/>
      <point x="42" y="835"/>
      <point x="42" y="828" type="curve"/>
      <point x="42" y="820"/>
      <point x="40" y="818"/>
      <point x="40" y="815" type="curve"/>
      <point x="45" y="815"/>
      <point x="50" y="818"/>
      <point x="55" y="818" type="curve"/>
      <point x="65" y="818"/>
      <point x="70" y="810"/>
      <point x="70" y="798" type="curve"/>
      <point x="70" y="785"/>
      <point x="65" y="778"/>
      <point x="53" y="778" type="curve"/>
      <point x="45" y="778"/>
      <point x="38" y="785"/>
      <point x="38" y="795" type="curve"/>
      <point x="38" y="805"/>
      <point x="40" y="808"/>
      <point x="40" y="810" type="curve"/>
      <point x="35" y="810"/>
      <point x="30" y="808"/>
      <point x="20" y="808" type="curve"/>
      <point x="10" y="808"/>
      <point x="5" y="810"/>
      <point x="0" y="810" type="curve"/>
      <point x="0" y="805"/>
      <point x="2" y="800"/>
      <point x="2" y="790" type="curve"/>
      <point x="2" y="780"/>
      <point x="0" y="775"/>
      <point x="0" y="770" type="curve"/>
      <point x="10" y="770"/>
      <point x="30" y="760"/>
      <point x="30" y="750" type="curve"/>
    </contour>
  </outline>
</glyph>
<glyph name="guillemotright" format="1">
  <advance width="718"/>
  <unicode hex="00BB"/>
  <outline>
    <contour>
      <point x="348" y="496"/>
      <point x="334" y="496"/>
      <point x="320" y="482" type="curve"/>
      <point x="334" y="468"/>
      <point x="347" y="467"/>
      <point x="380" y="436" type="curve" smooth="yes"/>
      <point x="407" y="410"/>
      <point x="420" y="393"/>
      <point x="420" y="376" type="curve" smooth="yes"/>
      <point x="420" y="359"/>
      <point x="407" y="343"/>
      <point x="380" y="316" type="curve"/>
      <point x="348" y="284"/>
      <point x="334" y="284"/>
      <point x="320" y="270" type="curve"/>
      <point x="334" y="256"/>
      <point x="348" y="256"/>
      <point x="380" y="224" type="curve"/>
      <point x="412" y="192"/>
      <point x="412" y="178"/>
      <point x="426" y="164" type="curve"/>
      <point x="440" y="178"/>
      <point x="440" y="192"/>
      <point x="525" y="277" type="curve"/>
      <point x="610" y="362"/>
      <point x="624" y="362"/>
      <point x="638" y="376" type="curve"/>
      <point x="624" y="390"/>
      <point x="610" y="390"/>
      <point x="525" y="475" type="curve"/>
      <point x="440" y="560"/>
      <point x="440" y="574"/>
      <point x="426" y="588" type="curve"/>
      <point x="412" y="574"/>
      <point x="412" y="560"/>
      <point x="380" y="528" type="curve"/>
    </contour>
    <contour>
      <point x="48" y="496"/>
      <point x="34" y="496"/>
      <point x="20" y="482" type="curve"/>
      <point x="34" y="468"/>
      <point x="47" y="467"/>
      <point x="80" y="436" type="curve" smooth="yes"/>
      <point x="107" y="410"/>
      <point x="120" y="393"/>
      <point x="120" y="376" type="curve" smooth="yes"/>
      <point x="120" y="359"/>
      <point x="107" y="343"/>
      <point x="80" y="316" type="curve"/>
      <point x="48" y="284"/>
      <point x="34" y="284"/>
      <point x="20" y="270" type="curve"/>
      <point x="34" y="256"/>
      <point x="48" y="256"/>
      <point x="80" y="224" type="curve"/>
      <point x="112" y="192"/>
      <point x="112" y="178"/>
      <point x="126" y="164" type="curve"/>
      <point x="140" y="178"/>
      <point x="140" y="192"/>
      <point x="225" y="277" type="curve"/>
      <point x="310" y="362"/>
      <point x="324" y="362"/>
      <point x="338" y="376" type="curve"/>
      <point x="324" y="390"/>
      <point x="310" y="390"/>
      <point x="225" y="475" type="curve"/>
      <point x="140" y="560"/>
      <point x="140" y="574"/>
      <point x="126" y="588" type="curve"/>
      <point x="112" y="574"/>
      <point x="112" y="560"/>
      <point x="80" y="528" type="curve"/>
    </contour>
  </outline>
</glyph>
<glyph name="onequarter" format="1">
  <advance width="750"/>
  <unicode hex="00BC"/>
  <note>
    scale to 46.6 degrees
  </note>
  <outline>
    <contour>
      <point x="75" y="585" type="curve"/>
      <point x="75" y="560"/>
      <point x="70" y="515"/>
      <point x="45" y="515" type="curve"/>
      <point x="30" y="515"/>
      <point x="25" y="520"/>
      <point x="20" y="520" type="curve"/>
      <point x="20" y="510"/>
      <point x="24" y="500"/>
      <point x="24" y="485" type="curve" smooth="yes"/>
      <point x="24" y="470"/>
      <point x="20" y="460"/>
      <point x="20" y="450" type="curve"/>
      <point x="220" y="450" type="line"/>
      <point x="220" y="460"/>
      <point x="215" y="470"/>
      <point x="215" y="485" type="curve" smooth="yes"/>
      <point x="215" y="500"/>
      <point x="220" y="510"/>
      <point x="220" y="520" type="curve"/>
      <point x="215" y="520"/>
      <point x="210" y="515"/>
      <point x="195" y="515" type="curve"/>
      <point x="170" y="515"/>
      <point x="160" y="560"/>
      <point x="160" y="635" type="curve"/>
      <point x="160" y="720"/>
      <point x="170" y="730"/>
      <point x="170" y="750" type="curve"/>
      <point x="100" y="750" type="line"/>
      <point x="100" y="730"/>
      <point x="70" y="710"/>
      <point x="20" y="710" type="curve"/>
      <point x="20" y="700"/>
      <point x="24" y="690"/>
      <point x="24" y="680" type="curve" smooth="yes"/>
      <point x="24" y="670"/>
      <point x="20" y="660"/>
      <point x="20" y="650" type="curve"/>
      <point x="25" y="650"/>
      <point x="30" y="655"/>
      <point x="45" y="655" type="curve"/>
      <point x="70" y="655"/>
      <point x="75" y="610"/>
    </contour>
    <contour>
      <point x="470" y="0" type="line"/>
      <point x="470" y="10"/>
      <point x="474" y="20"/>
      <point x="474" y="35" type="curve"/>
      <point x="474" y="50"/>
      <point x="470" y="60"/>
      <point x="470" y="70" type="curve"/>
      <point x="475" y="70"/>
      <point x="480" y="65"/>
      <point x="495" y="65" type="curve"/>
      <point x="520" y="65"/>
      <point x="523" y="105"/>
      <point x="523" y="110" type="curve"/>
      <point x="440" y="110"/>
      <point x="430" y="100"/>
      <point x="420" y="100" type="curve"/>
      <point x="420" y="105"/>
      <point x="425" y="115"/>
      <point x="425" y="130" type="curve"/>
      <point x="425" y="145"/>
      <point x="420" y="155"/>
      <point x="420" y="160" type="curve"/>
      <point x="440" y="160"/>
      <point x="550" y="280"/>
      <point x="550" y="300" type="curve"/>
      <point x="620" y="300" type="line"/>
      <point x="620" y="280"/>
      <point x="610" y="265"/>
      <point x="610" y="150" type="curve"/>
      <point x="655" y="150"/>
      <point x="665" y="160"/>
      <point x="670" y="160" type="curve"/>
      <point x="670" y="155"/>
      <point x="665" y="145"/>
      <point x="665" y="130" type="curve"/>
      <point x="665" y="116"/>
      <point x="670" y="105"/>
      <point x="670" y="100" type="curve"/>
      <point x="665" y="100"/>
      <point x="655" y="110"/>
      <point x="615" y="110" type="curve"/>
      <point x="615" y="105"/>
      <point x="620" y="65"/>
      <point x="645" y="65" type="curve"/>
      <point x="660" y="65"/>
      <point x="665" y="70"/>
      <point x="670" y="70" type="curve"/>
      <point x="670" y="60"/>
      <point x="666" y="50"/>
      <point x="666" y="35" type="curve"/>
      <point x="666" y="20"/>
      <point x="670" y="10"/>
      <point x="670" y="0" type="curve"/>
    </contour>
    <contour>
      <point x="525" y="150" type="line"/>
      <point x="525" y="205" type="line"/>
      <point x="525" y="195"/>
      <point x="475" y="150"/>
      <point x="470" y="150" type="curve"/>
    </contour>
    <component base="fraction"/>
  </outline>
</glyph>
<glyph name="threequarters" format="1">
  <advance width="750"/>
  <unicode hex="00BE"/>
  <outline>
    <contour>
      <point x="200" y="450" type="line"/>
      <point x="200" y="470"/>
      <point x="240" y="510"/>
      <point x="260" y="510" type="curve"/>
      <point x="260" y="515"/>
      <point x="255" y="520"/>
      <point x="255" y="540" type="curve"/>
      <point x="255" y="560"/>
      <point x="260" y="565"/>
      <point x="260" y="570" type="curve"/>
      <point x="240" y="570"/>
      <point x="200" y="595"/>
      <point x="200" y="600" type="curve"/>
      <point x="200" y="605"/>
      <point x="240" y="630"/>
      <point x="260" y="630" type="curve"/>
      <point x="260" y="635"/>
      <point x="255" y="640"/>
      <point x="255" y="660" type="curve"/>
      <point x="255" y="680"/>
      <point x="260" y="685"/>
      <point x="260" y="690" type="curve"/>
      <point x="240" y="690"/>
      <point x="200" y="730"/>
      <point x="200" y="750" type="curve"/>
      <point x="80" y="750" type="line"/>
      <point x="80" y="730"/>
      <point x="40" y="710"/>
      <point x="20" y="710" type="curve"/>
      <point x="20" y="700"/>
      <point x="25" y="690"/>
      <point x="25" y="675" type="curve"/>
      <point x="25" y="660"/>
      <point x="20" y="650"/>
      <point x="20" y="640" type="curve"/>
      <point x="30" y="640"/>
      <point x="40" y="645"/>
      <point x="60" y="645" type="curve"/>
      <point x="80" y="645"/>
      <point x="90" y="640"/>
      <point x="100" y="640" type="curve"/>
      <point x="100" y="645"/>
      <point x="95" y="650"/>
      <point x="95" y="668" type="curve"/>
      <point x="95" y="685"/>
      <point x="110" y="695"/>
      <point x="125" y="695" type="curve"/>
      <point x="150" y="695"/>
      <point x="160" y="680"/>
      <point x="160" y="660" type="curve"/>
      <point x="160" y="638"/>
      <point x="150" y="625"/>
      <point x="130" y="625" type="curve"/>
      <point x="120" y="625"/>
      <point x="110" y="630"/>
      <point x="100" y="630" type="curve"/>
      <point x="100" y="625"/>
      <point x="104" y="620"/>
      <point x="104" y="605" type="curve"/>
      <point x="104" y="590"/>
      <point x="100" y="585"/>
      <point x="100" y="580" type="curve"/>
      <point x="110" y="580"/>
      <point x="120" y="585"/>
      <point x="130" y="585" type="curve"/>
      <point x="150" y="585"/>
      <point x="160" y="570"/>
      <point x="160" y="545" type="curve"/>
      <point x="160" y="520"/>
      <point x="150" y="505"/>
      <point x="125" y="505" type="curve"/>
      <point x="110" y="505"/>
      <point x="95" y="520"/>
      <point x="95" y="540" type="curve"/>
      <point x="95" y="560"/>
      <point x="100" y="565"/>
      <point x="100" y="570" type="curve"/>
      <point x="90" y="570"/>
      <point x="80" y="565"/>
      <point x="60" y="565" type="curve"/>
      <point x="40" y="565"/>
      <point x="30" y="570"/>
      <point x="20" y="570" type="curve"/>
      <point x="20" y="560"/>
      <point x="24" y="550"/>
      <point x="24" y="530" type="curve"/>
      <point x="24" y="510"/>
      <point x="20" y="500"/>
      <point x="20" y="490" type="curve"/>
      <point x="40" y="490"/>
      <point x="80" y="470"/>
      <point x="80" y="450" type="curve"/>
    </contour>
    <contour>
      <point x="470" y="0" type="line"/>
      <point x="470" y="10"/>
      <point x="474" y="20"/>
      <point x="474" y="35" type="curve"/>
      <point x="474" y="50"/>
      <point x="470" y="60"/>
      <point x="470" y="70" type="curve"/>
      <point x="475" y="70"/>
      <point x="480" y="65"/>
      <point x="495" y="65" type="curve"/>
      <point x="520" y="65"/>
      <point x="523" y="105"/>
      <point x="523" y="110" type="curve"/>
      <point x="440" y="110"/>
      <point x="430" y="100"/>
      <point x="420" y="100" type="curve"/>
      <point x="420" y="105"/>
      <point x="425" y="115"/>
      <point x="425" y="130" type="curve"/>
      <point x="425" y="145"/>
      <point x="420" y="155"/>
      <point x="420" y="160" type="curve"/>
      <point x="440" y="160"/>
      <point x="550" y="280"/>
      <point x="550" y="300" type="curve"/>
      <point x="620" y="300" type="line"/>
      <point x="620" y="280"/>
      <point x="610" y="265"/>
      <point x="610" y="150" type="curve"/>
      <point x="655" y="150"/>
      <point x="665" y="160"/>
      <point x="670" y="160" type="curve"/>
      <point x="670" y="155"/>
      <point x="665" y="145"/>
      <point x="665" y="130" type="curve"/>
      <point x="665" y="116"/>
      <point x="670" y="105"/>
      <point x="670" y="100" type="curve"/>
      <point x="665" y="100"/>
      <point x="655" y="110"/>
      <point x="615" y="110" type="curve"/>
      <point x="615" y="105"/>
      <point x="620" y="65"/>
      <point x="645" y="65" type="curve"/>
      <point x="660" y="65"/>
      <point x="665" y="70"/>
      <point x="670" y="70" type="curve"/>
      <point x="670" y="60"/>
      <point x="666" y="50"/>
      <point x="666" y="35" type="curve"/>
      <point x="666" y="20"/>
      <point x="670" y="10"/>
      <point x="670" y="0" type="curve"/>
    </contour>
    <contour>
      <point x="525" y="150" type="line"/>
      <point x="525" y="205" type="line"/>
      <point x="525" y="195"/>
      <point x="475" y="150"/>
      <point x="470" y="150" type="curve"/>
    </contour>
    <component base="fraction"/>
  </outline>
</glyph>
<glyph name="multiply" format="1">
  <advance width="524"/>
  <unicode hex="00D7"/>
  <outline>
    <contour>
      <point x="126" y="163" type="curve"/>
      <point x="140" y="177"/>
      <point x="140" y="191"/>
      <point x="278" y="329" type="curve"/>
      <point x="416" y="467"/>
      <point x="430" y="467"/>
      <point x="444" y="481" type="curve"/>
      <point x="430" y="495"/>
      <point x="416" y="495"/>
      <point x="384" y="527" type="curve"/>
      <point x="352" y="559"/>
      <point x="352" y="573"/>
      <point x="338" y="587" type="curve"/>
      <point x="324" y="573"/>
      <point x="324" y="559"/>
      <point x="186" y="421" type="curve"/>
      <point x="48" y="283"/>
      <point x="34" y="283"/>
      <point x="20" y="269" type="curve"/>
      <point x="34" y="255"/>
      <point x="48" y="255"/>
      <point x="80" y="223" type="curve"/>
      <point x="112" y="191"/>
      <point x="112" y="177"/>
    </contour>
    <contour>
      <point x="20" y="481" type="curve"/>
      <point x="34" y="467"/>
      <point x="48" y="467"/>
      <point x="186" y="329" type="curve"/>
      <point x="324" y="191"/>
      <point x="324" y="177"/>
      <point x="338" y="163" type="curve"/>
      <point x="352" y="177"/>
      <point x="352" y="191"/>
      <point x="384" y="223" type="curve"/>
      <point x="416" y="255"/>
      <point x="430" y="255"/>
      <point x="444" y="269" type="curve"/>
      <point x="430" y="283"/>
      <point x="416" y="283"/>
      <point x="278" y="421" type="curve"/>
      <point x="140" y="559"/>
      <point x="140" y="573"/>
      <point x="126" y="587" type="curve"/>
      <point x="112" y="573"/>
      <point x="112" y="559"/>
      <point x="80" y="527" type="curve"/>
      <point x="48" y="495"/>
      <point x="34" y="495"/>
    </contour>
  </outline>
</glyph>
<glyph name="Oslash" format="1">
  <advance width="800"/>
  <unicode hex="00D8"/>
  <note>
    skewed 40 degrees
  </note>
  <outline>
    <contour>
      <point x="90" y="0" type="curve"/>
      <point x="107" y="20"/>
      <point x="109" y="32"/>
      <point x="399" y="375" type="curve"/>
      <point x="687" y="722"/>
      <point x="703" y="730"/>
      <point x="719" y="750" type="curve"/>
      <point x="709" y="750"/>
      <point x="695" y="745"/>
      <point x="680" y="745" type="curve"/>
      <point x="665" y="745"/>
      <point x="659" y="750"/>
      <point x="649" y="750" type="curve"/>
      <point x="633" y="730"/>
      <point x="629" y="719"/>
      <point x="340" y="375" type="curve"/>
      <point x="50" y="30"/>
      <point x="37" y="20"/>
      <point x="20" y="0" type="curve"/>
      <point x="30" y="0"/>
      <point x="44" y="5"/>
      <point x="59" y="5" type="curve"/>
      <point x="74" y="5"/>
      <point x="80" y="0"/>
    </contour>
    <component base="O"/>
  </outline>
</glyph>
<glyph name="ae" format="1">
  <advance width="950"/>
  <unicode hex="00E6"/>
  <outline>
    <contour>
      <point x="566" y="350" type="curve"/>
      <point x="566" y="400"/>
      <point x="600" y="480"/>
      <point x="665" y="480" type="curve"/>
      <point x="700" y="480"/>
      <point x="730" y="450"/>
      <point x="730" y="410" type="curve" smooth="yes"/>
      <point x="730" y="380"/>
      <point x="720" y="370"/>
      <point x="720" y="360" type="curve"/>
      <point x="594" y="360"/>
      <point x="586" y="350"/>
    </contour>
    <contour>
      <point x="380" y="260" type="line"/>
      <point x="380" y="170"/>
      <point x="330" y="120"/>
      <point x="280" y="120" type="curve" smooth="yes"/>
      <point x="240" y="120"/>
      <point x="220" y="145"/>
      <point x="220" y="175" type="curve" smooth="yes"/>
      <point x="220" y="215"/>
      <point x="260" y="260"/>
      <point x="350" y="260" type="curve"/>
    </contour>
    <contour>
      <point x="380" y="60" type="curve"/>
      <point x="390" y="60"/>
      <point x="420" y="20"/>
      <point x="420" y="0" type="curve"/>
      <point x="770" y="0" type="line"/>
      <point x="770" y="50"/>
      <point x="820" y="100"/>
      <point x="870" y="100" type="curve"/>
      <point x="870" y="120"/>
      <point x="860" y="130"/>
      <point x="860" y="175" type="curve" smooth="yes"/>
      <point x="860" y="220"/>
      <point x="870" y="230"/>
      <point x="870" y="250" type="curve"/>
      <point x="850" y="250"/>
      <point x="840" y="240"/>
      <point x="800" y="240" type="curve" smooth="yes"/>
      <point x="750" y="240"/>
      <point x="740" y="250"/>
      <point x="720" y="250" type="curve"/>
      <point x="720" y="230"/>
      <point x="730" y="220"/>
      <point x="730" y="190" type="curve" smooth="yes"/>
      <point x="730" y="150"/>
      <point x="700" y="120"/>
      <point x="665" y="120" type="curve"/>
      <point x="600" y="120"/>
      <point x="560" y="200"/>
      <point x="560" y="300" type="curve"/>
      <point x="580" y="300"/>
      <point x="590" y="310"/>
      <point x="720" y="310" type="curve" smooth="yes"/>
      <point x="840" y="310"/>
      <point x="850" y="300"/>
      <point x="870" y="300" type="curve"/>
      <point x="870" y="319"/>
      <point x="860" y="330"/>
      <point x="860" y="400" type="curve" smooth="yes"/>
      <point x="860" y="470"/>
      <point x="870" y="480"/>
      <point x="870" y="500" type="curve"/>
      <point x="820" y="500"/>
      <point x="770" y="550"/>
      <point x="770" y="600" type="curve"/>
      <point x="520" y="600" type="line"/>
      <point x="520" y="570"/>
      <point x="480" y="515"/>
      <point x="470" y="515" type="curve"/>
      <point x="460" y="515"/>
      <point x="420" y="570"/>
      <point x="420" y="600" type="curve"/>
      <point x="170" y="600" type="line"/>
      <point x="170" y="550"/>
      <point x="120" y="500"/>
      <point x="70" y="500" type="curve"/>
      <point x="70" y="490"/>
      <point x="80" y="480"/>
      <point x="80" y="450" type="curve"/>
      <point x="80" y="420"/>
      <point x="70" y="410"/>
      <point x="70" y="400" type="curve"/>
      <point x="90" y="400"/>
      <point x="100" y="410"/>
      <point x="145" y="410" type="curve"/>
      <point x="190" y="410"/>
      <point x="200" y="400"/>
      <point x="220" y="400" type="curve"/>
      <point x="220" y="430"/>
      <point x="250" y="450"/>
      <point x="290" y="450" type="curve"/>
      <point x="340" y="450"/>
      <point x="380" y="440"/>
      <point x="380" y="400" type="curve"/>
      <point x="380" y="360"/>
      <point x="340" y="340"/>
      <point x="270" y="340" type="curve" smooth="yes"/>
      <point x="200" y="340"/>
      <point x="190" y="350"/>
      <point x="170" y="350" type="curve"/>
      <point x="170" y="300"/>
      <point x="70" y="250"/>
      <point x="20" y="250" type="curve"/>
      <point x="20" y="230"/>
      <point x="30" y="220"/>
      <point x="30" y="175" type="curve"/>
      <point x="30" y="130"/>
      <point x="20" y="120"/>
      <point x="20" y="100" type="curve"/>
      <point x="70" y="100"/>
      <point x="120" y="50"/>
      <point x="120" y="0" type="curve"/>
      <point x="340" y="0" type="line"/>
      <point x="340" y="20"/>
      <point x="370" y="60"/>
    </contour>
  </outline>
</glyph>
<glyph name="dotlessi" format="1">
  <advance width="500"/>
  <unicode hex="0131"/>
  <outline>
    <contour>
      <point x="140" y="300" type="curve"/>
      <point x="140" y="200"/>
      <point x="120" y="140"/>
      <point x="70" y="140" type="curve"/>
      <point x="40" y="140"/>
      <point x="30" y="150"/>
      <point x="20" y="150" type="curve"/>
      <point x="20" y="130"/>
      <point x="30" y="120"/>
      <point x="30" y="75" type="curve" smooth="yes"/>
      <point x="30" y="30"/>
      <point x="20" y="20"/>
      <point x="20" y="0" type="curve"/>
      <point x="420" y="0" type="line"/>
      <point x="420" y="20"/>
      <point x="410" y="30"/>
      <point x="410" y="75" type="curve" smooth="yes"/>
      <point x="410" y="120"/>
      <point x="420" y="130"/>
      <point x="420" y="150" type="curve"/>
      <point x="410" y="150"/>
      <point x="400" y="140"/>
      <point x="370" y="140" type="curve"/>
      <point x="320" y="140"/>
      <point x="300" y="200"/>
      <point x="300" y="375" type="curve"/>
      <point x="300" y="550"/>
      <point x="320" y="580"/>
      <point x="320" y="600" type="curve"/>
      <point x="300" y="600"/>
      <point x="290" y="590"/>
      <point x="170" y="590" type="curve"/>
      <point x="50" y="590"/>
      <point x="40" y="600"/>
      <point x="20" y="600" type="curve"/>
      <point x="20" y="580"/>
      <point x="30" y="570"/>
      <point x="30" y="525" type="curve" smooth="yes"/>
      <point x="30" y="480"/>
      <point x="20" y="470"/>
      <point x="20" y="450" type="curve"/>
      <point x="30" y="450"/>
      <point x="40" y="460"/>
      <point x="70" y="460" type="curve"/>
      <point x="120" y="460"/>
      <point x="140" y="400"/>
    </contour>
  </outline>
</glyph>
<glyph name="ring" format="1">
  <advance width="250"/>
  <unicode hex="02DA"/>
  <outline>
    <contour>
      <point x="95" y="830" type="curve"/>
      <point x="70" y="830"/>
      <point x="60" y="845"/>
      <point x="60" y="875" type="curve"/>
      <point x="60" y="905"/>
      <point x="70" y="920"/>
      <point x="95" y="920" type="curve"/>
      <point x="120" y="920"/>
      <point x="130" y="905"/>
      <point x="130" y="875" type="curve"/>
      <point x="130" y="845"/>
      <point x="120" y="830"/>
    </contour>
    <contour>
      <point x="60" y="800" type="curve"/>
      <point x="130" y="800" type="line"/>
      <point x="130" y="810"/>
      <point x="160" y="830"/>
      <point x="170" y="830" type="curve"/>
      <point x="170" y="840"/>
      <point x="165" y="850"/>
      <point x="165" y="875" type="curve"/>
      <point x="165" y="900"/>
      <point x="170" y="910"/>
      <point x="170" y="920" type="curve"/>
      <point x="160" y="920"/>
      <point x="130" y="940"/>
      <point x="130" y="950" type="curve"/>
      <point x="60" y="950" type="line"/>
      <point x="60" y="940"/>
      <point x="30" y="920"/>
      <point x="20" y="920" type="curve"/>
      <point x="20" y="910"/>
      <point x="25" y="900"/>
      <point x="25" y="875" type="curve"/>
      <point x="25" y="850"/>
      <point x="20" y="840"/>
      <point x="20" y="830" type="curve"/>
      <point x="30" y="830"/>
      <point x="60" y="810"/>
    </contour>
  </outline>
</glyph>
<glyph name="tilde" format="1">
  <advance width="500"/>
  <unicode hex="02DC"/>
  <outline>
    <contour>
      <point x="20" y="800" type="curve"/>
      <point x="140" y="800" type="line"/>
      <point x="140" y="810"/>
      <point x="132" y="815"/>
      <point x="132" y="825" type="curve"/>
      <point x="132" y="835"/>
      <point x="140" y="850"/>
      <point x="170" y="850" type="curve"/>
      <point x="220" y="850"/>
      <point x="320" y="800"/>
      <point x="340" y="800" type="curve"/>
      <point x="340" y="830"/>
      <point x="390" y="850"/>
      <point x="420" y="850" type="curve"/>
      <point x="420" y="860"/>
      <point x="410" y="870"/>
      <point x="410" y="900" type="curve"/>
      <point x="410" y="930"/>
      <point x="420" y="940"/>
      <point x="420" y="950" type="curve"/>
      <point x="300" y="950" type="line"/>
      <point x="300" y="940"/>
      <point x="308" y="935"/>
      <point x="308" y="925" type="curve"/>
      <point x="308" y="915"/>
      <point x="300" y="900"/>
      <point x="280" y="900" type="curve"/>
      <point x="230" y="900"/>
      <point x="120" y="950"/>
      <point x="100" y="950" type="curve"/>
      <point x="100" y="920"/>
      <point x="50" y="900"/>
      <point x="20" y="900" type="curve"/>
      <point x="20" y="890"/>
      <point x="30" y="880"/>
      <point x="30" y="850" type="curve"/>
      <point x="30" y="820"/>
      <point x="20" y="810"/>
    </contour>
  </outline>
</glyph>
<glyph name="endash" format="1">
  <advance width="600"/>
  <unicode hex="2013"/>
  <outline>
    <contour>
      <point x="520" y="450" type="curve"/>
      <point x="500" y="450"/>
      <point x="490" y="440"/>
      <point x="270" y="440" type="curve"/>
      <point x="50" y="440"/>
      <point x="40" y="450"/>
      <point x="20" y="450" type="curve"/>
      <point x="20" y="430"/>
      <point x="30" y="420"/>
      <point x="30" y="375" type="curve"/>
      <point x="30" y="330"/>
      <point x="20" y="320"/>
      <point x="20" y="300" type="curve"/>
      <point x="40" y="300"/>
      <point x="50" y="310"/>
      <point x="270" y="310" type="curve"/>
      <point x="490" y="310"/>
      <point x="500" y="300"/>
      <point x="520" y="300" type="curve"/>
      <point x="520" y="320"/>
      <point x="510" y="330"/>
      <point x="510" y="375" type="curve"/>
      <point x="510" y="420"/>
      <point x="520" y="430"/>
    </contour>
  </outline>
</glyph>
<glyph name="quoteleft" format="1">
  <advance width="250"/>
  <unicode hex="2018"/>
  <outline>
    <contour>
      <point x="170" y="670"/>
      <point x="160" y="680"/>
      <point x="160" y="725" type="curve"/>
      <point x="160" y="770"/>
      <point x="170" y="780"/>
      <point x="170" y="800" type="curve"/>
      <point x="150" y="800"/>
      <point x="140" y="790"/>
      <point x="95" y="790" type="curve"/>
      <point x="50" y="790"/>
      <point x="40" y="800"/>
      <point x="20" y="800" type="curve"/>
      <point x="20" y="780"/>
      <point x="30" y="770"/>
      <point x="30" y="725" type="curve"/>
      <point x="30" y="680"/>
      <point x="20" y="670"/>
      <point x="20" y="650" type="curve"/>
      <point x="60" y="650"/>
      <point x="150" y="550"/>
      <point x="170" y="550" type="curve"/>
      <point x="170" y="566"/>
      <point x="110" y="630"/>
      <point x="110" y="650" type="curve" smooth="yes"/>
      <point x="110" y="655"/>
      <point x="115" y="658"/>
      <point x="120" y="658" type="curve"/>
      <point x="140" y="658"/>
      <point x="150" y="650"/>
      <point x="170" y="650" type="curve"/>
    </contour>
  </outline>
</glyph>
<glyph name="minus" format="1">
  <advance width="550"/>
  <unicode hex="2212"/>
  <outline>
    <contour>
      <point x="470" y="450" type="curve"/>
      <point x="450" y="450"/>
      <point x="440" y="440"/>
      <point x="245" y="440" type="curve"/>
      <point x="50" y="440"/>
      <point x="40" y="450"/>
      <point x="20" y="450" type="curve"/>
      <point x="20" y="430"/>
      <point x="30" y="420"/>
      <point x="30" y="375" type="curve"/>
      <point x="30" y="330"/>
      <point x="20" y="320"/>
      <point x="20" y="300" type="curve"/>
      <point x="40" y="300"/>
      <point x="50" y="310"/>
      <point x="245" y="310" type="curve"/>
      <point x="440" y="310"/>
      <point x="450" y="300"/>
      <point x="470" y="300" type="curve"/>
      <point x="470" y="320"/>
      <point x="460" y="330"/>
      <point x="460" y="375" type="curve"/>
      <point x="460" y="420"/>
      <point x="470" y="430"/>
    </contour>
  </outline>
</glyph>
<glyph name="C_o_underscore" format="1">
  <advance width="1334"/>
  <outline>
    <contour>
      <point x="1002" y="310" type="curve"/>
      <point x="952" y="310"/>
      <point x="924" y="347"/>
      <point x="924" y="475" type="curve"/>
      <point x="924" y="603"/>
      <point x="952" y="640"/>
      <point x="1002" y="640" type="curve"/>
      <point x="1053" y="640"/>
      <point x="1080" y="603"/>
      <point x="1080" y="475" type="curve"/>
      <point x="1080" y="347"/>
      <point x="1053" y="310"/>
    </contour>
    <contour>
      <point x="1117" y="200" type="line"/>
      <point x="1117" y="246"/>
      <point x="1209" y="337"/>
      <point x="1254" y="337" type="curve"/>
      <point x="1254" y="356"/>
      <point x="1236" y="365"/>
      <point x="1236" y="475" type="curve"/>
      <point x="1236" y="585"/>
      <point x="1254" y="594"/>
      <point x="1254" y="612" type="curve"/>
      <point x="1209" y="612"/>
      <point x="1117" y="704"/>
      <point x="1117" y="750" type="curve"/>
      <point x="888" y="750" type="line"/>
      <point x="888" y="704"/>
      <point x="796" y="612"/>
      <point x="750" y="612" type="curve"/>
      <point x="750" y="594"/>
      <point x="768" y="585"/>
      <point x="768" y="475" type="curve"/>
      <point x="768" y="365"/>
      <point x="750" y="356"/>
      <point x="750" y="337" type="curve"/>
      <point x="796" y="337"/>
      <point x="888" y="246"/>
      <point x="888" y="200" type="curve"/>
    </contour>
    <component base="C"/>
    <component base="endash" xOffset="730" yOffset="-300"/>
  </outline>
</glyph>
<glyph name=".notdef" format="1">
  <advance width="630"/>
  <outline>
    <contour>
      <point x="430" y="30"/>
      <point x="520" y="100"/>
      <point x="550" y="100" type="curve"/>
      <point x="550" y="120"/>
      <point x="540" y="130"/>
      <point x="540" y="350" type="curve" smooth="yes"/>
      <point x="540" y="570"/>
      <point x="550" y="580"/>
      <point x="550" y="600" type="curve"/>
      <point x="520" y="600"/>
      <point x="430" y="670"/>
      <point x="430" y="700" type="curve"/>
      <point x="410" y="700"/>
      <point x="375" y="690"/>
      <point x="275" y="690" type="curve"/>
      <point x="175" y="690"/>
      <point x="140" y="700"/>
      <point x="120" y="700" type="curve"/>
      <point x="120" y="670"/>
      <point x="30" y="600"/>
      <point x="0" y="600" type="curve"/>
      <point x="0" y="580"/>
      <point x="10" y="570"/>
      <point x="10" y="350" type="curve"/>
      <point x="10" y="130"/>
      <point x="0" y="120"/>
      <point x="0" y="100" type="curve"/>
      <point x="30" y="100"/>
      <point x="120" y="30"/>
      <point x="120" y="0" type="curve"/>
      <point x="140" y="0"/>
      <point x="175" y="10"/>
      <point x="275" y="10" type="curve"/>
      <point x="375" y="10"/>
      <point x="410" y="0"/>
      <point x="430" y="0" type="curve"/>
    </contour>
    <contour>
      <point x="275" y="90" type="curve"/>
      <point x="145" y="90"/>
      <point x="90" y="120"/>
      <point x="90" y="351" type="curve"/>
      <point x="90" y="580"/>
      <point x="145" y="610"/>
      <point x="275" y="610" type="curve"/>
      <point x="405" y="610"/>
      <point x="460" y="579"/>
      <point x="460" y="350" type="curve"/>
      <point x="460" y="120"/>
      <point x="405" y="90"/>
    </contour>
    <contour>
      <point x="245" y="200" type="line"/>
      <point x="245" y="208"/>
      <point x="249" y="210"/>
      <point x="249" y="230" type="curve"/>
      <point x="249" y="250"/>
      <point x="245" y="252"/>
      <point x="245" y="260" type="curve"/>
      <point x="253" y="260"/>
      <point x="255" y="256"/>
      <point x="275" y="256" type="curve"/>
      <point x="295" y="256"/>
      <point x="297" y="260"/>
      <point x="305" y="260" type="curve"/>
      <point x="305" y="252"/>
      <point x="301" y="250"/>
      <point x="301" y="230" type="curve"/>
      <point x="301" y="210"/>
      <point x="305" y="208"/>
      <point x="305" y="200" type="curve"/>
    </contour>
    <contour>
      <point x="315" y="290" type="curve"/>
      <point x="315" y="298"/>
      <point x="311" y="302"/>
      <point x="311" y="314" type="curve"/>
      <point x="311" y="342"/>
      <point x="375" y="360"/>
      <point x="395" y="360" type="curve"/>
      <point x="395" y="368"/>
      <point x="391" y="372"/>
      <point x="391" y="400" type="curve"/>
      <point x="391" y="428"/>
      <point x="395" y="432"/>
      <point x="395" y="440" type="curve"/>
      <point x="375" y="440"/>
      <point x="335" y="480"/>
      <point x="335" y="500" type="curve"/>
      <point x="215" y="500" type="line"/>
      <point x="215" y="480"/>
      <point x="175" y="460"/>
      <point x="155" y="460" type="curve"/>
      <point x="155" y="452"/>
      <point x="159" y="448"/>
      <point x="159" y="426" type="curve"/>
      <point x="159" y="404"/>
      <point x="155" y="400"/>
      <point x="155" y="392" type="curve"/>
      <point x="163" y="392"/>
      <point x="167" y="396"/>
      <point x="195" y="396" type="curve"/>
      <point x="223" y="396"/>
      <point x="227" y="392"/>
      <point x="235" y="392" type="curve"/>
      <point x="235" y="400"/>
      <point x="231" y="404"/>
      <point x="231" y="418" type="curve"/>
      <point x="231" y="432"/>
      <point x="243" y="444"/>
      <point x="263" y="444" type="curve"/>
      <point x="283" y="444"/>
      <point x="295" y="432"/>
      <point x="295" y="410" type="curve"/>
      <point x="295" y="380"/>
      <point x="255" y="350"/>
      <point x="235" y="350" type="curve"/>
      <point x="235" y="342"/>
      <point x="239" y="338"/>
      <point x="239" y="320" type="curve" smooth="yes"/>
      <point x="239" y="302"/>
      <point x="235" y="298"/>
      <point x="235" y="290" type="curve"/>
      <point x="271" y="290"/>
      <point x="271" y="280"/>
      <point x="275" y="280" type="curve"/>
      <point x="279" y="280"/>
      <point x="283" y="290"/>
    </contour>
  </outline>
</glyph>
<glyph name="c.add_1" format="1">
  <advance width="600"/>
  <outline>
    <contour>
      <point x="390" y="350"/>
      <point x="400" y="360"/>
      <point x="450" y="360" type="curve" smooth="yes"/>
      <point x="490" y="360"/>
      <point x="500" y="350"/>
      <point x="520" y="350" type="curve"/>
      <point x="520" y="370"/>
      <point x="510" y="380"/>
      <point x="510" y="475" type="curve"/>
      <point x="510" y="570"/>
      <point x="520" y="580"/>
      <point x="520" y="600" type="curve"/>
      <point x="400" y="600" type="line"/>
      <point x="400" y="580"/>
      <point x="380" y="540"/>
      <point x="370" y="540" type="curve" smooth="yes"/>
      <point x="360" y="540"/>
      <point x="340" y="580"/>
      <point x="340" y="600" type="curve"/>
      <point x="170" y="600" type="line"/>
      <point x="170" y="550"/>
      <point x="70" y="450"/>
      <point x="20" y="450" type="curve"/>
      <point x="20" y="430"/>
      <point x="40" y="420"/>
      <point x="40" y="300" type="curve"/>
      <point x="40" y="180"/>
      <point x="20" y="170"/>
      <point x="20" y="150" type="curve"/>
      <point x="70" y="150"/>
      <point x="170" y="50"/>
      <point x="170" y="0" type="curve"/>
      <point x="420" y="0" type="line"/>
      <point x="420" y="50"/>
      <point x="470" y="100"/>
      <point x="520" y="100" type="curve"/>
      <point x="520" y="120"/>
      <point x="510" y="130"/>
      <point x="510" y="175" type="curve" smooth="yes"/>
      <point x="510" y="219"/>
      <point x="520" y="230"/>
      <point x="520" y="250" type="curve"/>
      <point x="500" y="250"/>
      <point x="490" y="240"/>
      <point x="450" y="240" type="curve" smooth="yes"/>
      <point x="400" y="240"/>
      <point x="390" y="250"/>
      <point x="370" y="250" type="curve"/>
      <point x="370" y="230"/>
      <point x="380" y="220"/>
      <point x="380" y="190" type="curve" smooth="yes"/>
      <point x="380" y="150"/>
      <point x="350" y="120"/>
      <point x="315" y="120" type="curve"/>
      <point x="250" y="120"/>
      <point x="210" y="200"/>
      <point x="210" y="300" type="curve" smooth="yes"/>
      <point x="210" y="400"/>
      <point x="250" y="480"/>
      <point x="315" y="480" type="curve" smooth="yes"/>
      <point x="350" y="480"/>
      <point x="380" y="450"/>
      <point x="380" y="410" type="curve" smooth="yes"/>
      <point x="380" y="380"/>
      <point x="370" y="370"/>
      <point x="370" y="350" type="curve"/>
    </contour>
  </outline>
</glyph>
<glyph name="ff" format="1">
  <advance width="1000"/>
  <outline>
    <contour>
      <point x="520" y="800" type="curve"/>
      <point x="520" y="770"/>
      <point x="495" y="730"/>
      <point x="485" y="730" type="curve"/>
      <point x="475" y="730"/>
      <point x="450" y="770"/>
      <point x="450" y="800" type="curve"/>
      <point x="220" y="800" type="line"/>
      <point x="220" y="750"/>
      <point x="170" y="650"/>
      <point x="120" y="650" type="curve"/>
      <point x="120" y="630"/>
      <point x="130" y="620"/>
      <point x="130" y="575" type="curve" smooth="yes"/>
      <point x="130" y="510"/>
      <point x="110" y="490"/>
      <point x="69" y="490" type="curve" smooth="yes"/>
      <point x="40" y="490"/>
      <point x="30" y="500"/>
      <point x="20" y="500" type="curve"/>
      <point x="20" y="480"/>
      <point x="30" y="470"/>
      <point x="30" y="425" type="curve" smooth="yes"/>
      <point x="30" y="380"/>
      <point x="20" y="370"/>
      <point x="20" y="350" type="curve"/>
      <point x="30" y="350"/>
      <point x="40" y="360"/>
      <point x="70" y="360" type="curve" smooth="yes"/>
      <point x="110" y="360"/>
      <point x="140" y="320"/>
      <point x="140" y="250" type="curve" smooth="yes"/>
      <point x="140" y="180"/>
      <point x="104" y="140"/>
      <point x="70" y="140" type="curve" smooth="yes"/>
      <point x="40" y="140"/>
      <point x="30" y="150"/>
      <point x="20" y="150" type="curve"/>
      <point x="20" y="130"/>
      <point x="30" y="120"/>
      <point x="30" y="75" type="curve" smooth="yes"/>
      <point x="30" y="30"/>
      <point x="20" y="20"/>
      <point x="20" y="0" type="curve"/>
      <point x="98" y="0"/>
      <point x="520" y="0"/>
      <point x="520" y="0" type="curve"/>
      <point x="520" y="0"/>
      <point x="520" y="800"/>
    </contour>
    <contour>
      <point x="310" y="580" type="curve" smooth="yes"/>
      <point x="310" y="640"/>
      <point x="330" y="680"/>
      <point x="370" y="680" type="curve"/>
      <point x="410" y="680"/>
      <point x="430" y="640"/>
      <point x="430" y="580" type="curve" smooth="yes"/>
      <point x="430" y="520"/>
      <point x="410" y="490"/>
      <point x="370" y="490" type="curve"/>
      <point x="330" y="490"/>
      <point x="310" y="520"/>
    </contour>
    <contour>
      <point x="300" y="250" type="curve" smooth="yes"/>
      <point x="300" y="320"/>
      <point x="330" y="360"/>
      <point x="370" y="360" type="curve"/>
      <point x="410" y="360"/>
      <point x="440" y="320"/>
      <point x="440" y="250" type="curve" smooth="yes"/>
      <point x="440" y="180"/>
      <point x="410" y="140"/>
      <point x="370" y="140" type="curve"/>
      <point x="330" y="140"/>
      <point x="300" y="180"/>
    </contour>
    <component base="f" xOffset="300"/>
  </outline>
</glyph>
<glyph name="ffi" format="1">
  <advance width="1000"/>
  <outline>
    <contour>
      <point x="520" y="800" type="curve"/>
      <point x="520" y="770"/>
      <point x="495" y="730"/>
      <point x="485" y="730" type="curve"/>
      <point x="475" y="730"/>
      <point x="450" y="770"/>
      <point x="450" y="800" type="curve"/>
      <point x="220" y="800" type="line"/>
      <point x="220" y="750"/>
      <point x="170" y="650"/>
      <point x="120" y="650" type="curve"/>
      <point x="120" y="630"/>
      <point x="130" y="620"/>
      <point x="130" y="575" type="curve" smooth="yes"/>
      <point x="130" y="510"/>
      <point x="110" y="490"/>
      <point x="69" y="490" type="curve" smooth="yes"/>
      <point x="40" y="490"/>
      <point x="30" y="500"/>
      <point x="20" y="500" type="curve"/>
      <point x="20" y="480"/>
      <point x="30" y="470"/>
      <point x="30" y="425" type="curve" smooth="yes"/>
      <point x="30" y="380"/>
      <point x="20" y="370"/>
      <point x="20" y="350" type="curve"/>
      <point x="30" y="350"/>
      <point x="40" y="360"/>
      <point x="70" y="360" type="curve" smooth="yes"/>
      <point x="110" y="360"/>
      <point x="140" y="320"/>
      <point x="140" y="250" type="curve" smooth="yes"/>
      <point x="140" y="180"/>
      <point x="104" y="140"/>
      <point x="70" y="140" type="curve" smooth="yes"/>
      <point x="40" y="140"/>
      <point x="30" y="150"/>
      <point x="20" y="150" type="curve"/>
      <point x="20" y="130"/>
      <point x="30" y="120"/>
      <point x="30" y="75" type="curve" smooth="yes"/>
      <point x="30" y="30"/>
      <point x="20" y="20"/>
      <point x="20" y="0" type="curve"/>
      <point x="98" y="0"/>
      <point x="520" y="0"/>
      <point x="520" y="0" type="curve"/>
      <point x="520" y="0"/>
      <point x="520" y="800"/>
    </contour>
    <contour>
      <point x="310" y="580" type="curve" smooth="yes"/>
      <point x="310" y="640"/>
      <point x="330" y="680"/>
      <point x="370" y="680" type="curve"/>
      <point x="410" y="680"/>
      <point x="430" y="640"/>
      <point x="430" y="580" type="curve" smooth="yes"/>
      <point x="430" y="530"/>
      <point x="410" y="490"/>
      <point x="370" y="490" type="curve"/>
      <point x="330" y="490"/>
      <point x="310" y="530"/>
    </contour>
    <contour>
      <point x="300" y="250" type="curve" smooth="yes"/>
      <point x="300" y="320"/>
      <point x="330" y="360"/>
      <point x="370" y="360" type="curve"/>
      <point x="410" y="360"/>
      <point x="440" y="320"/>
      <point x="440" y="250" type="curve" smooth="yes"/>
      <point x="440" y="180"/>
      <point x="410" y="140"/>
      <point x="370" y="140" type="curve"/>
      <point x="330" y="140"/>
      <point x="300" y="180"/>
    </contour>
    <component base="fi" xOffset="300"/>
  </outline>
</glyph>
